<svg width="298" height="116" viewBox="0 0 298 116" fill="none" xmlns="http://www.w3.org/2000/svg">
<rect width="298" height="116" rx="4" fill="#EBEEF3"/>
<path d="M61.8528 67.042L60.4098 72H51.8998L60.9278 45.582H72.0278L81.0558 72H72.3978L70.9178 67.042H61.8528ZM66.4038 52.131H66.2558L63.5178 61.492H69.2158L66.4038 52.131ZM93.5898 52.242V72H85.4498V52.242H77.4578V45.582H101.582V52.242H93.5898ZM127.847 72H119.707V61.899H111.049V72H102.909V45.582H111.049V55.35H119.707V45.582H127.847V72ZM129.756 45.582H137.933V65.34H150.883V72H129.756V45.582ZM172.321 55.609V61.455H160.407V65.71H173.061V72H152.23V45.582H173.061V51.687H160.407V55.609H172.321ZM190.245 52.242V72H182.105V52.242H174.113V45.582H198.237V52.242H190.245ZM219.655 55.609V61.455H207.741V65.71H220.395V72H199.564V45.582H220.395V51.687H207.741V55.609H219.655ZM236.913 53.759C236.839 52.8217 236.481 52.0817 235.84 51.539C235.199 50.9963 234.261 50.725 233.028 50.725C232.091 50.725 231.326 50.91 230.734 51.28C230.142 51.65 229.846 52.1187 229.846 52.686C229.846 53.204 230.068 53.5987 230.512 53.87C230.981 54.1167 231.684 54.3633 232.621 54.61L236.654 55.646C238.578 56.1393 240.12 56.645 241.279 57.163C242.463 57.6563 243.474 58.4703 244.313 59.605C245.152 60.7397 245.571 62.2937 245.571 64.267C245.571 67.079 244.461 69.1757 242.241 70.557C240.021 71.9137 237.172 72.592 233.694 72.592C231.474 72.592 229.439 72.259 227.589 71.593C225.764 70.9023 224.271 69.891 223.112 68.559C221.977 67.227 221.336 65.6237 221.188 63.749L229.217 62.935C229.291 64.1683 229.735 65.1057 230.549 65.747C231.388 66.3883 232.461 66.709 233.768 66.709C234.779 66.709 235.618 66.524 236.284 66.154C236.95 65.784 237.283 65.266 237.283 64.6C237.283 63.9587 237.024 63.4777 236.506 63.157C236.013 62.8363 235.088 62.491 233.731 62.121L230.327 61.196C228.502 60.7027 227.034 60.2217 225.924 59.753C224.839 59.2597 223.901 58.5073 223.112 57.496C222.323 56.46 221.928 55.054 221.928 53.278C221.928 50.5647 222.989 48.505 225.11 47.099C227.231 45.693 229.994 44.99 233.398 44.99C236.481 44.99 239.034 45.7053 241.057 47.136C243.104 48.5667 244.301 50.614 244.646 53.278L236.913 53.759Z" fill="url(#paint0_linear_7_3324)"/>
<defs>
<linearGradient id="paint0_linear_7_3324" x1="149.101" y1="38" x2="149.101" y2="77" gradientUnits="userSpaceOnUse">
<stop stop-color="#262626"/>
<stop offset="1" stop-color="#B8C2CE"/>
</linearGradient>
</defs>
</svg>
