<svg width="298" height="116" viewBox="0 0 298 116" fill="none" xmlns="http://www.w3.org/2000/svg">
<rect y="0.207397" width="298" height="115" rx="4" fill="#EBEEF3"/>
<path d="M39.2276 45.7894C41.9656 45.7894 44.1116 46.4307 45.6656 47.7134C47.2443 48.9961 48.0336 50.6981 48.0336 52.8194C48.0336 55.1381 46.8866 56.8894 44.5926 58.0734V58.2214C45.8753 58.7887 46.9113 59.5781 47.7006 60.5894C48.4899 61.5761 48.8846 62.7847 48.8846 64.2154C48.8846 66.7561 48.0829 68.7294 46.4796 70.1354C44.9009 71.5167 42.6933 72.2074 39.8566 72.2074H24.5386V45.7894H39.2276ZM37.3036 56.2604C38.1669 56.2604 38.8329 56.0507 39.3016 55.6314C39.7703 55.2121 40.0046 54.6447 40.0046 53.9294C40.0046 53.2141 39.7703 52.6467 39.3016 52.2274C38.8329 51.8081 38.1669 51.5984 37.3036 51.5984H32.6786V56.2604H37.3036ZM37.7846 66.2504C38.6973 66.2504 39.3879 66.0407 39.8566 65.6214C40.3499 65.1774 40.5966 64.5731 40.5966 63.8084C40.5966 63.0437 40.3499 62.4517 39.8566 62.0324C39.3879 61.5884 38.6973 61.3664 37.7846 61.3664H32.6786V66.2504H37.7846ZM58.6746 67.2494L57.2316 72.2074H48.7216L57.7496 45.7894H68.8496L77.8776 72.2074H69.2196L67.7396 67.2494H58.6746ZM63.2256 52.3384H63.0776L60.3396 61.6994H66.0376L63.2256 52.3384ZM92.8891 53.9664C92.8151 53.0291 92.4575 52.2891 91.8161 51.7464C91.1748 51.2037 90.2375 50.9324 89.0041 50.9324C88.0668 50.9324 87.3021 51.1174 86.7101 51.4874C86.1181 51.8574 85.8221 52.3261 85.8221 52.8934C85.8221 53.4114 86.0441 53.8061 86.4881 54.0774C86.9568 54.3241 87.6598 54.5707 88.5971 54.8174L92.6301 55.8534C94.5541 56.3467 96.0958 56.8524 97.2551 57.3704C98.4391 57.8637 99.4505 58.6777 100.289 59.8124C101.128 60.9471 101.547 62.5011 101.547 64.4744C101.547 67.2864 100.437 69.3831 98.2171 70.7644C95.9971 72.1211 93.1481 72.7994 89.6701 72.7994C87.4501 72.7994 85.4151 72.4664 83.5651 71.8004C81.7398 71.1097 80.2475 70.0984 79.0881 68.7664C77.9535 67.4344 77.3121 65.8311 77.1641 63.9564L85.1931 63.1424C85.2671 64.3757 85.7111 65.3131 86.5251 65.9544C87.3638 66.5957 88.4368 66.9164 89.7441 66.9164C90.7555 66.9164 91.5941 66.7314 92.2601 66.3614C92.9261 65.9914 93.2591 65.4734 93.2591 64.8074C93.2591 64.1661 93.0001 63.6851 92.4821 63.3644C91.9888 63.0437 91.0638 62.6984 89.7071 62.3284L86.3031 61.4034C84.4778 60.9101 83.0101 60.4291 81.9001 59.9604C80.8148 59.4671 79.8775 58.7147 79.0881 57.7034C78.2988 56.6674 77.9041 55.2614 77.9041 53.4854C77.9041 50.7721 78.9648 48.7124 81.0861 47.3064C83.2075 45.9004 85.9701 45.1974 89.3741 45.1974C92.4575 45.1974 95.0105 45.9127 97.0331 47.3434C99.0805 48.7741 100.277 50.8214 100.622 53.4854L92.8891 53.9664ZM111.231 64.2894V72.2074H103.091V45.7894H111.231V54.8914L118.742 45.7894H127.844L118.816 55.9274L129.028 72.2074H119.445L113.266 61.9954L111.231 64.2894ZM149.776 55.8164V61.6624H137.862V65.9174H150.516V72.2074H129.685V45.7894H150.516V51.8944H137.862V55.8164H149.776ZM167.7 52.4494V72.2074H159.56V52.4494H151.568V45.7894H175.692V52.4494H167.7ZM191.708 45.7894C194.446 45.7894 196.592 46.4307 198.146 47.7134C199.725 48.9961 200.514 50.6981 200.514 52.8194C200.514 55.1381 199.367 56.8894 197.073 58.0734V58.2214C198.356 58.7887 199.392 59.5781 200.181 60.5894C200.97 61.5761 201.365 62.7847 201.365 64.2154C201.365 66.7561 200.563 68.7294 198.96 70.1354C197.381 71.5167 195.174 72.2074 192.337 72.2074H177.019V45.7894H191.708ZM189.784 56.2604C190.647 56.2604 191.313 56.0507 191.782 55.6314C192.251 55.2121 192.485 54.6447 192.485 53.9294C192.485 53.2141 192.251 52.6467 191.782 52.2274C191.313 51.8081 190.647 51.5984 189.784 51.5984H185.159V56.2604H189.784ZM190.265 66.2504C191.178 66.2504 191.868 66.0407 192.337 65.6214C192.83 65.1774 193.077 64.5731 193.077 63.8084C193.077 63.0437 192.83 62.4517 192.337 62.0324C191.868 61.5884 191.178 61.3664 190.265 61.3664H185.159V66.2504H190.265ZM211.155 67.2494L209.712 72.2074H201.202L210.23 45.7894H221.33L230.358 72.2074H221.7L220.22 67.2494H211.155ZM215.706 52.3384H215.558L212.82 61.6994H218.518L215.706 52.3384ZM231.182 45.7894H239.359V65.5474H252.309V72.2074H231.182V45.7894ZM253.657 45.7894H261.834V65.5474H274.784V72.2074H253.657V45.7894Z" fill="url(#paint0_linear_7_3320)"/>
<defs>
<linearGradient id="paint0_linear_7_3320" x1="149.373" y1="20.2074" x2="149.373" y2="95.2074" gradientUnits="userSpaceOnUse">
<stop stop-color="#262626"/>
<stop offset="1" stop-color="#B8C2CE"/>
</linearGradient>
</defs>
</svg>
