<svg width="298" height="116" viewBox="0 0 298 116" fill="none" xmlns="http://www.w3.org/2000/svg">
<rect width="298" height="116" rx="4" fill="#EBEEF3"/>
<path d="M56.8035 51.687V56.534H68.7175V62.38H56.8035V72H48.6265V45.582H69.4575V51.687H56.8035ZM83.9902 44.99C91.8712 44.99 97.7912 49.837 97.7912 58.791C97.7912 67.745 91.8712 72.592 83.9902 72.592C76.1092 72.592 70.1892 67.745 70.1892 58.791C70.1892 49.837 76.1092 44.99 83.9902 44.99ZM83.9902 66.228C86.6912 66.228 89.5032 64.711 89.5032 58.791C89.5032 52.871 86.6912 51.354 83.9902 51.354C81.2892 51.354 78.4772 52.871 78.4772 58.791C78.4772 64.711 81.2892 66.228 83.9902 66.228ZM112.788 44.99C120.669 44.99 126.589 49.837 126.589 58.791C126.589 67.745 120.669 72.592 112.788 72.592C104.907 72.592 98.987 67.745 98.987 58.791C98.987 49.837 104.907 44.99 112.788 44.99ZM112.788 66.228C115.489 66.228 118.301 64.711 118.301 58.791C118.301 52.871 115.489 51.354 112.788 51.354C110.087 51.354 107.275 52.871 107.275 58.791C107.275 64.711 110.087 66.228 112.788 66.228ZM151.145 52.242H143.153V72H135.013V52.242H127.021V45.582H151.145V52.242ZM152.472 45.582H167.161C172.674 45.582 175.967 48.394 175.967 52.612C175.967 55.239 174.45 56.867 172.526 57.866V58.014C174.82 59.05 176.818 60.937 176.818 64.008C176.818 69.114 173.451 72 167.79 72H152.472V45.582ZM160.612 56.053H165.237C167.013 56.053 167.938 55.128 167.938 53.722C167.938 52.316 167.013 51.391 165.237 51.391H160.612V56.053ZM160.612 66.043H165.718C167.568 66.043 168.53 65.081 168.53 63.601C168.53 62.121 167.568 61.159 165.718 61.159H160.612V66.043ZM195.636 67.042H186.608L185.165 72H176.655L185.683 45.582H196.783L205.811 72H197.153L195.636 67.042ZM193.971 61.492L191.159 52.131H191.011L188.236 61.492H193.971ZM206.635 72V45.582H214.812V65.34H227.762V72H206.635ZM229.11 72V45.582H237.287V65.34H250.237V72H229.11Z" fill="url(#paint0_linear_7_3322)"/>
<defs>
<linearGradient id="paint0_linear_7_3322" x1="149.144" y1="20" x2="149.144" y2="95" gradientUnits="userSpaceOnUse">
<stop stop-color="#262626"/>
<stop offset="1" stop-color="#B8C2CE"/>
</linearGradient>
</defs>
</svg>
