<svg width="659" height="58" viewBox="0 0 659 58" fill="none" xmlns="http://www.w3.org/2000/svg">
<rect x="27" width="606" height="58" rx="5" fill="#0E842C"/>
<path d="M7.5 32.8301C4.16666 30.9056 4.16667 26.0944 7.5 24.1699L26.25 13.3445C29.5833 11.4201 33.75 13.8257 33.75 17.6747L33.75 39.3253C33.75 43.1743 29.5833 45.5799 26.25 43.6554L7.5 32.8301Z" fill="#0E842C"/>
<path d="M651.5 24.1699C654.833 26.0944 654.833 30.9056 651.5 32.8301L632.75 43.6554C629.417 45.5799 625.25 43.1743 625.25 39.3253L625.25 17.6747C625.25 13.8257 629.417 11.4201 632.75 13.3446L651.5 24.1699Z" fill="#0E842C"/>
<path d="M89.1482 35.344V21.376C89.1482 20.2 89.9162 19.408 91.1162 19.408C92.3162 19.408 93.0842 20.2 93.0842 21.376V35.344C93.0842 36.52 92.3162 37.312 91.1162 37.312C89.9162 37.312 89.1482 36.52 89.1482 35.344ZM96.31 40.216V25.792C96.31 24.712 96.814 24.136 97.894 24.136C98.926 24.136 99.478 24.712 99.478 25.792V26.344H99.526C100.102 24.856 101.518 24.136 103.222 24.136C106.15 24.136 108.718 26.272 108.718 30.808C108.718 34.168 107.014 37.312 103.318 37.312C101.71 37.312 100.51 36.664 99.862 35.536H99.814V40.216C99.814 41.368 99.118 41.968 98.062 41.968C97.006 41.968 96.31 41.368 96.31 40.216ZM105.214 30.688C105.214 28.624 104.302 26.92 102.43 26.872C100.39 26.872 99.622 28.696 99.622 30.688C99.622 32.488 100.294 34.6 102.43 34.576C104.662 34.576 105.214 32.32 105.214 30.688ZM111.174 35.56V25.888C111.174 24.952 111.558 24.136 112.926 24.136C114.294 24.136 114.678 24.952 114.678 25.888V35.56C114.678 36.496 114.294 37.312 112.926 37.312C111.558 37.312 111.174 36.496 111.174 35.56ZM111.102 21.136C111.102 20.128 111.918 19.312 112.926 19.312C113.934 19.312 114.75 20.128 114.75 21.136C114.75 22.144 113.934 22.96 112.926 22.96C111.918 22.96 111.102 22.144 111.102 21.136ZM117.662 35.56V25.888C117.662 24.832 118.142 24.136 119.246 24.136C120.35 24.136 120.83 24.832 120.83 25.888V26.344H120.878C121.862 25.048 123.134 24.136 125.126 24.136C127.238 24.136 129.542 25.192 129.542 28.744V35.56C129.542 36.496 129.158 37.312 127.79 37.312C126.422 37.312 126.038 36.496 126.038 35.56V29.44C126.038 28.024 125.342 27.016 123.83 27.016C122.606 27.016 121.166 28.024 121.166 29.776V35.56C121.166 36.496 120.782 37.312 119.414 37.312C118.046 37.312 117.662 36.496 117.662 35.56ZM132.525 35.56V21.16C132.525 20.008 133.221 19.408 134.277 19.408C135.333 19.408 136.029 20.008 136.029 21.16V35.56C136.029 36.712 135.333 37.312 134.277 37.312C133.221 37.312 132.525 36.712 132.525 35.56ZM149.909 31.384H141.989C141.989 33.232 143.189 34.576 145.229 34.576C147.869 34.576 147.869 32.848 149.285 32.848C150.125 32.848 150.725 33.568 150.725 34.216C150.725 36.328 147.341 37.312 145.229 37.312C140.333 37.312 138.485 34 138.485 30.952C138.485 26.872 140.957 24.136 145.109 24.136C149.141 24.136 151.445 26.992 151.445 29.872C151.445 31.072 151.085 31.384 149.909 31.384ZM141.989 29.368H148.133C147.941 27.76 146.741 26.584 145.181 26.584C143.429 26.584 142.373 27.664 141.989 29.368ZM160.708 28.144C160.708 23.08 163.78 19.312 169.444 19.312C175.108 19.312 178.18 23.08 178.18 28.144C178.18 33.016 175.348 37.408 169.444 37.408C163.252 37.408 160.708 33.376 160.708 28.144ZM164.644 28.144C164.644 31.456 165.748 34.24 169.444 34.24C173.02 34.24 174.244 31.456 174.244 28.144C174.244 24.832 172.66 22.48 169.444 22.48C166.228 22.48 164.644 24.832 164.644 28.144ZM183.614 30.688C183.614 32.296 184.406 34.072 186.398 34.072C187.958 34.072 189.158 33.04 189.158 30.544C189.158 28 188.198 26.872 186.566 26.872C184.31 26.872 183.614 28.528 183.614 30.688ZM192.518 25.792V35.968C192.518 40.192 189.926 42.136 186.278 42.136C183.614 42.136 180.998 40.936 180.998 39.232C180.998 38.368 181.67 37.744 182.438 37.744C183.902 37.744 184.19 39.544 186.158 39.544C188.294 39.544 189.158 38.464 189.158 35.704V34.984H189.11C188.486 35.896 187.118 36.664 185.726 36.664C182.03 36.664 180.11 34.264 180.11 30.808C180.11 26.272 182.654 24.136 185.606 24.136C187.31 24.136 188.654 24.928 189.302 26.224H189.35V25.792C189.35 24.712 189.902 24.136 190.934 24.136C192.014 24.136 192.518 24.712 192.518 25.792ZM207.19 25.888V35.56C207.19 36.616 206.71 37.312 205.606 37.312C204.502 37.312 204.022 36.616 204.022 35.56V35.104H203.974C202.99 36.4 201.718 37.312 199.726 37.312C197.614 37.312 195.31 36.256 195.31 32.704V25.888C195.31 24.952 195.694 24.136 197.062 24.136C198.43 24.136 198.814 24.952 198.814 25.888V32.008C198.814 33.424 199.51 34.432 201.022 34.432C202.246 34.432 203.686 33.424 203.686 31.672V25.888C203.686 24.952 204.07 24.136 205.438 24.136C206.806 24.136 207.19 24.952 207.19 25.888ZM209.982 35.56V25.888C209.982 24.832 210.462 24.136 211.566 24.136C212.67 24.136 213.15 24.832 213.15 25.888V26.344H213.198C214.182 25.048 215.454 24.136 217.446 24.136C219.558 24.136 221.862 25.192 221.862 28.744V35.56C221.862 36.496 221.478 37.312 220.11 37.312C218.742 37.312 218.358 36.496 218.358 35.56V29.44C218.358 28.024 217.662 27.016 216.15 27.016C214.926 27.016 213.486 28.024 213.486 29.776V35.56C213.486 36.496 213.102 37.312 211.734 37.312C210.366 37.312 209.982 36.496 209.982 35.56ZM232.302 35.2C232.302 34.12 233.19 33.232 234.27 33.232C235.83 33.232 236.526 34.624 236.526 36.256C236.526 37.888 236.046 38.704 235.302 39.472C234.942 39.808 233.862 40.504 233.118 40.504C232.59 40.504 232.302 40.168 232.302 39.784C232.302 38.728 234.726 39.28 234.846 36.832C234.63 36.952 234.366 37.048 234.03 37.048C232.926 37.048 232.302 36.16 232.302 35.2ZM247.094 35.344V21.376C247.094 20.2 247.862 19.408 249.062 19.408C250.262 19.408 251.03 20.2 251.03 21.376V35.344C251.03 36.52 250.262 37.312 249.062 37.312C247.862 37.312 247.094 36.52 247.094 35.344ZM255.167 34.192V26.752H254.567C253.583 26.752 253.175 26.368 253.175 25.6C253.175 24.832 253.583 24.448 254.567 24.448H255.167V22.312C255.167 21.16 255.863 20.56 256.919 20.56C257.975 20.56 258.671 21.16 258.671 22.312V24.448H259.727C260.759 24.448 261.311 24.76 261.311 25.6C261.311 26.44 260.759 26.752 259.727 26.752H258.671V33.76C258.671 34.288 258.959 34.576 259.583 34.576H260.087C260.855 34.576 261.311 35.008 261.311 35.752C261.311 36.76 260.447 37.312 258.767 37.312C256.223 37.312 255.167 36.256 255.167 34.192ZM263.426 21.376C263.426 20.296 264.314 19.408 265.394 19.408C266.954 19.408 267.65 20.8 267.65 22.432C267.65 24.064 267.17 24.88 266.426 25.648C266.066 25.984 264.986 26.68 264.242 26.68C263.714 26.68 263.426 26.344 263.426 25.96C263.426 24.904 265.85 25.456 265.97 23.008C265.754 23.128 265.49 23.224 265.154 23.224C264.05 23.224 263.426 22.336 263.426 21.376ZM269.289 28.048C269.289 25.192 272.121 24.136 274.545 24.136C277.209 24.136 279.897 25.192 279.897 26.8C279.897 27.616 279.345 28.336 278.433 28.336C277.065 28.336 277.017 26.728 274.809 26.728C273.585 26.728 272.793 27.064 272.793 27.808C272.793 28.624 273.585 28.816 274.665 29.056L276.129 29.392C278.121 29.848 280.497 30.688 280.497 33.136C280.497 35.992 277.737 37.312 275.097 37.312C271.929 37.312 269.289 35.896 269.289 34.168C269.289 33.4 269.721 32.704 270.705 32.704C272.217 32.704 272.361 34.864 274.953 34.864C276.201 34.864 276.993 34.312 276.993 33.592C276.993 32.704 276.225 32.56 274.977 32.248L272.913 31.744C270.873 31.24 269.289 30.4 269.289 28.048ZM290.5 34.696V22.024C290.5 20.272 291.412 19.72 292.804 19.72H298.036C300.916 19.72 304.348 20.368 304.348 24.184C304.348 25.648 303.556 27.04 301.924 27.688V27.736C303.748 28.216 304.948 29.512 304.948 31.888C304.948 35.512 301.996 37 298.588 37H292.804C291.412 37 290.5 36.448 290.5 34.696ZM294.436 29.32V33.976H297.748C299.284 33.976 301.012 33.664 301.012 31.672C301.012 29.584 299.188 29.32 297.268 29.32H294.436ZM294.436 22.6V26.824H297.676C299.524 26.824 300.412 26.08 300.412 24.712C300.412 23.056 299.02 22.6 297.556 22.6H294.436ZM318.284 31.384H310.364C310.364 33.232 311.564 34.576 313.604 34.576C316.244 34.576 316.244 32.848 317.66 32.848C318.5 32.848 319.1 33.568 319.1 34.216C319.1 36.328 315.716 37.312 313.604 37.312C308.708 37.312 306.86 34 306.86 30.952C306.86 26.872 309.332 24.136 313.484 24.136C317.516 24.136 319.82 26.992 319.82 29.872C319.82 31.072 319.46 31.384 318.284 31.384ZM310.364 29.368H316.508C316.316 27.76 315.116 26.584 313.556 26.584C311.804 26.584 310.748 27.664 310.364 29.368ZM333.723 27.736V33.616C333.723 35.08 334.083 35.416 334.083 35.968C334.083 36.76 333.339 37.312 332.499 37.312C330.987 37.312 330.483 36.352 330.435 35.272C329.067 36.784 327.483 37.312 325.635 37.312C323.643 37.312 321.675 35.944 321.675 33.736C321.675 30.832 323.883 30.016 326.571 29.704L328.707 29.464C329.547 29.368 330.219 29.176 330.219 28.168C330.219 27.16 329.187 26.728 328.011 26.728C325.419 26.728 325.347 28.648 323.955 28.648C323.067 28.648 322.467 28.024 322.467 27.304C322.467 25.912 324.435 24.136 328.035 24.136C331.395 24.136 333.723 25.216 333.723 27.736ZM330.219 32.464V31.096C329.835 31.456 329.115 31.576 328.707 31.648L327.435 31.84C325.971 32.056 325.179 32.512 325.179 33.568C325.179 34.36 325.923 35.008 327.123 35.008C329.043 35.008 330.219 33.76 330.219 32.464ZM348.635 25.888V35.56C348.635 36.616 348.155 37.312 347.051 37.312C345.947 37.312 345.467 36.616 345.467 35.56V35.104H345.419C344.435 36.4 343.163 37.312 341.171 37.312C339.059 37.312 336.755 36.256 336.755 32.704V25.888C336.755 24.952 337.139 24.136 338.507 24.136C339.875 24.136 340.259 24.952 340.259 25.888V32.008C340.259 33.424 340.955 34.432 342.467 34.432C343.691 34.432 345.131 33.424 345.131 31.672V25.888C345.131 24.952 345.515 24.136 346.883 24.136C348.251 24.136 348.635 24.952 348.635 25.888ZM352.339 34.192V26.752H351.739C350.755 26.752 350.347 26.368 350.347 25.6C350.347 24.832 350.755 24.448 351.739 24.448H352.339V22.312C352.339 21.16 353.035 20.56 354.091 20.56C355.147 20.56 355.843 21.16 355.843 22.312V24.448H356.899C357.931 24.448 358.483 24.76 358.483 25.6C358.483 26.44 357.931 26.752 356.899 26.752H355.843V33.76C355.843 34.288 356.131 34.576 356.755 34.576H357.259C358.027 34.576 358.483 35.008 358.483 35.752C358.483 36.76 357.619 37.312 355.939 37.312C353.395 37.312 352.339 36.256 352.339 34.192ZM360.502 35.56V25.888C360.502 24.952 360.886 24.136 362.254 24.136C363.622 24.136 364.006 24.952 364.006 25.888V35.56C364.006 36.496 363.622 37.312 362.254 37.312C360.886 37.312 360.502 36.496 360.502 35.56ZM360.43 21.136C360.43 20.128 361.246 19.312 362.254 19.312C363.262 19.312 364.078 20.128 364.078 21.136C364.078 22.144 363.262 22.96 362.254 22.96C361.246 22.96 360.43 22.144 360.43 21.136ZM368.094 35.56V26.752H367.302C366.318 26.752 365.91 26.368 365.91 25.6C365.91 24.832 366.318 24.448 367.302 24.448H368.094V22.696C368.094 20.488 369.918 19.312 371.958 19.312C373.23 19.312 374.262 19.816 374.262 20.992C374.262 21.64 373.758 22.192 373.134 22.192C372.87 22.192 372.63 22.12 372.366 22.12C371.862 22.12 371.598 22.456 371.598 22.936V24.448H372.678C373.71 24.448 374.262 24.76 374.262 25.6C374.262 26.44 373.71 26.752 372.678 26.752H371.598V35.56C371.598 36.712 370.902 37.312 369.846 37.312C368.79 37.312 368.094 36.712 368.094 35.56ZM387.752 25.888V35.56C387.752 36.616 387.272 37.312 386.168 37.312C385.064 37.312 384.584 36.616 384.584 35.56V35.104H384.536C383.552 36.4 382.28 37.312 380.288 37.312C378.176 37.312 375.872 36.256 375.872 32.704V25.888C375.872 24.952 376.256 24.136 377.624 24.136C378.992 24.136 379.376 24.952 379.376 25.888V32.008C379.376 33.424 380.072 34.432 381.584 34.432C382.808 34.432 384.248 33.424 384.248 31.672V25.888C384.248 24.952 384.632 24.136 386 24.136C387.368 24.136 387.752 24.952 387.752 25.888ZM390.736 35.56V21.16C390.736 20.008 391.432 19.408 392.488 19.408C393.544 19.408 394.24 20.008 394.24 21.16V35.56C394.24 36.712 393.544 37.312 392.488 37.312C391.432 37.312 390.736 36.712 390.736 35.56ZM404.992 35.344V21.376C404.992 20.2 405.76 19.408 406.96 19.408C408.16 19.408 408.928 20.2 408.928 21.376V26.272H416.08V21.376C416.08 20.2 416.848 19.408 418.048 19.408C419.248 19.408 420.016 20.2 420.016 21.376V35.344C420.016 36.52 419.248 37.312 418.048 37.312C416.848 37.312 416.08 36.52 416.08 35.344V29.584H408.928V35.344C408.928 36.52 408.16 37.312 406.96 37.312C405.76 37.312 404.992 36.52 404.992 35.344ZM434.136 31.384H426.216C426.216 33.232 427.416 34.576 429.456 34.576C432.096 34.576 432.096 32.848 433.512 32.848C434.352 32.848 434.952 33.568 434.952 34.216C434.952 36.328 431.568 37.312 429.456 37.312C424.56 37.312 422.712 34 422.712 30.952C422.712 26.872 425.184 24.136 429.336 24.136C433.368 24.136 435.672 26.992 435.672 29.872C435.672 31.072 435.312 31.384 434.136 31.384ZM426.216 29.368H432.36C432.168 27.76 430.968 26.584 429.408 26.584C427.656 26.584 426.6 27.664 426.216 29.368ZM438.127 35.56V25.768C438.127 24.712 438.823 24.136 439.711 24.136C440.599 24.136 441.295 24.712 441.295 25.768V27.112H441.343C441.751 25.648 442.543 24.136 444.247 24.136C445.351 24.136 446.167 24.856 446.167 25.84C446.167 27.136 445.303 27.592 444.439 27.592H443.815C442.399 27.592 441.631 28.576 441.631 31.48V35.56C441.631 36.496 441.247 37.312 439.879 37.312C438.511 37.312 438.127 36.496 438.127 35.56ZM458.323 31.384H450.403C450.403 33.232 451.603 34.576 453.643 34.576C456.283 34.576 456.283 32.848 457.699 32.848C458.539 32.848 459.139 33.568 459.139 34.216C459.139 36.328 455.755 37.312 453.643 37.312C448.747 37.312 446.899 34 446.899 30.952C446.899 26.872 449.371 24.136 453.523 24.136C457.555 24.136 459.859 26.992 459.859 29.872C459.859 31.072 459.499 31.384 458.323 31.384ZM450.403 29.368H456.547C456.355 27.76 455.155 26.584 453.595 26.584C451.843 26.584 450.787 27.664 450.403 29.368ZM461.825 35.2C461.825 34.12 462.713 33.232 463.793 33.232C464.873 33.232 465.761 34.12 465.761 35.2C465.761 36.28 464.873 37.168 463.793 37.168C462.713 37.168 461.825 36.28 461.825 35.2ZM476.617 35.344V21.376C476.617 20.2 477.385 19.408 478.585 19.408C479.785 19.408 480.553 20.2 480.553 21.376V35.344C480.553 36.52 479.785 37.312 478.585 37.312C477.385 37.312 476.617 36.52 476.617 35.344ZM483.227 28.048C483.227 25.192 486.059 24.136 488.483 24.136C491.147 24.136 493.835 25.192 493.835 26.8C493.835 27.616 493.283 28.336 492.371 28.336C491.003 28.336 490.955 26.728 488.747 26.728C487.523 26.728 486.731 27.064 486.731 27.808C486.731 28.624 487.523 28.816 488.603 29.056L490.067 29.392C492.059 29.848 494.435 30.688 494.435 33.136C494.435 35.992 491.675 37.312 489.035 37.312C485.867 37.312 483.227 35.896 483.227 34.168C483.227 33.4 483.659 32.704 484.643 32.704C486.155 32.704 486.299 34.864 488.891 34.864C490.139 34.864 490.931 34.312 490.931 33.592C490.931 32.704 490.163 32.56 488.915 32.248L486.851 31.744C484.811 31.24 483.227 30.4 483.227 28.048ZM507.565 31.384H499.645C499.645 33.232 500.845 34.576 502.885 34.576C505.525 34.576 505.525 32.848 506.941 32.848C507.781 32.848 508.381 33.568 508.381 34.216C508.381 36.328 504.997 37.312 502.885 37.312C497.989 37.312 496.141 34 496.141 30.952C496.141 26.872 498.613 24.136 502.765 24.136C506.797 24.136 509.101 26.992 509.101 29.872C509.101 31.072 508.741 31.384 507.565 31.384ZM499.645 29.368H505.789C505.597 27.76 504.397 26.584 502.837 26.584C501.085 26.584 500.029 27.664 499.645 29.368ZM513.765 25.456L516.021 33.64H516.069L518.205 25.696C518.445 24.808 518.925 24.136 519.885 24.136C521.277 24.136 521.685 25.288 521.685 25.72C521.685 26.008 521.589 26.368 521.421 26.824L517.365 38.32C516.525 40.72 515.565 41.968 513.357 41.968C511.797 41.968 511.149 41.2 511.149 40.36C511.149 39.424 511.821 38.944 512.757 38.944H513.117C513.573 38.944 514.077 38.92 514.341 37.84L510.693 27.448C510.405 26.608 510.261 26.224 510.261 25.816C510.261 24.856 511.029 24.136 511.965 24.136C512.901 24.136 513.549 24.664 513.765 25.456ZM534.583 27.736V33.616C534.583 35.08 534.943 35.416 534.943 35.968C534.943 36.76 534.199 37.312 533.359 37.312C531.847 37.312 531.343 36.352 531.295 35.272C529.927 36.784 528.343 37.312 526.495 37.312C524.503 37.312 522.535 35.944 522.535 33.736C522.535 30.832 524.743 30.016 527.431 29.704L529.567 29.464C530.407 29.368 531.079 29.176 531.079 28.168C531.079 27.16 530.047 26.728 528.871 26.728C526.279 26.728 526.207 28.648 524.815 28.648C523.927 28.648 523.327 28.024 523.327 27.304C523.327 25.912 525.295 24.136 528.895 24.136C532.255 24.136 534.583 25.216 534.583 27.736ZM531.079 32.464V31.096C530.695 31.456 529.975 31.576 529.567 31.648L528.295 31.84C526.831 32.056 526.039 32.512 526.039 33.568C526.039 34.36 526.783 35.008 527.983 35.008C529.903 35.008 531.079 33.76 531.079 32.464ZM549.255 27.736V33.616C549.255 35.08 549.615 35.416 549.615 35.968C549.615 36.76 548.871 37.312 548.031 37.312C546.519 37.312 546.015 36.352 545.967 35.272C544.599 36.784 543.015 37.312 541.167 37.312C539.175 37.312 537.207 35.944 537.207 33.736C537.207 30.832 539.415 30.016 542.103 29.704L544.239 29.464C545.079 29.368 545.751 29.176 545.751 28.168C545.751 27.16 544.719 26.728 543.543 26.728C540.951 26.728 540.879 28.648 539.487 28.648C538.599 28.648 537.999 28.024 537.999 27.304C537.999 25.912 539.967 24.136 543.567 24.136C546.927 24.136 549.255 25.216 549.255 27.736ZM545.751 32.464V31.096C545.367 31.456 544.647 31.576 544.239 31.648L542.967 31.84C541.503 32.056 540.711 32.512 540.711 33.568C540.711 34.36 541.455 35.008 542.655 35.008C544.575 35.008 545.751 33.76 545.751 32.464ZM556.583 21.256V24.04C556.583 24.4 556.535 24.784 556.487 25.168L555.743 30.784C555.647 31.48 555.311 31.672 554.687 31.672C554.063 31.672 553.727 31.48 553.631 30.784L552.887 25.168C552.839 24.784 552.791 24.4 552.791 24.04V21.256C552.791 20.032 553.487 19.408 554.687 19.408C555.887 19.408 556.583 20.032 556.583 21.256ZM552.719 35.2C552.719 34.12 553.607 33.232 554.687 33.232C555.767 33.232 556.655 34.12 556.655 35.2C556.655 36.28 555.767 37.168 554.687 37.168C553.607 37.168 552.719 36.28 552.719 35.2ZM564.176 21.256V24.04C564.176 24.4 564.128 24.784 564.08 25.168L563.336 30.784C563.24 31.48 562.904 31.672 562.28 31.672C561.656 31.672 561.32 31.48 561.224 30.784L560.48 25.168C560.432 24.784 560.384 24.4 560.384 24.04V21.256C560.384 20.032 561.08 19.408 562.28 19.408C563.48 19.408 564.176 20.032 564.176 21.256ZM560.312 35.2C560.312 34.12 561.2 33.232 562.28 33.232C563.36 33.232 564.248 34.12 564.248 35.2C564.248 36.28 563.36 37.168 562.28 37.168C561.2 37.168 560.312 36.28 560.312 35.2ZM571.77 21.256V24.04C571.77 24.4 571.722 24.784 571.674 25.168L570.93 30.784C570.834 31.48 570.498 31.672 569.874 31.672C569.25 31.672 568.914 31.48 568.818 30.784L568.074 25.168C568.026 24.784 567.978 24.4 567.978 24.04V21.256C567.978 20.032 568.674 19.408 569.874 19.408C571.074 19.408 571.77 20.032 571.77 21.256ZM567.906 35.2C567.906 34.12 568.794 33.232 569.874 33.232C570.954 33.232 571.842 34.12 571.842 35.2C571.842 36.28 570.954 37.168 569.874 37.168C568.794 37.168 567.906 36.28 567.906 35.2Z" fill="#FDDB0A"/>
</svg>
