<svg xmlns="http://www.w3.org/2000/svg" width="18" height="18" viewBox="0 0 18 18" fill="none">
  <g clip-path="url(#clip0_12_8079)">
    <path d="M5.08677 15.3688H2.03151V5.53002H5.08677V15.3688ZM3.55749 4.18792C2.58052 4.18792 1.78809 3.37871 1.78809 2.40173C1.78809 1.93246 1.97451 1.4824 2.30633 1.15057C2.63816 0.818743 3.08822 0.632324 3.55749 0.632324C4.02677 0.632324 4.47683 0.818743 4.80865 1.15057C5.14048 1.4824 5.3269 1.93246 5.3269 2.40173C5.3269 3.37871 4.53414 4.18792 3.55749 4.18792ZM16.5216 15.3688H13.473V10.5794C13.473 9.43791 13.4499 7.9741 11.8845 7.9741C10.296 7.9741 10.0526 9.21423 10.0526 10.4971V15.3688H7.00059V5.53002H9.93085V6.87213H9.97361C10.3815 6.0991 11.3779 5.28331 12.8644 5.28331C15.9565 5.28331 16.5249 7.31949 16.5249 9.96423V15.3688H16.5216Z" fill="white"/>
  </g>
  <defs>
    <clipPath id="clip0_12_8079">
      <rect width="16.8421" height="16.8421" fill="white" transform="translate(0.736328 0.631836)"/>
    </clipPath>
  </defs>
</svg>