<svg width="218" height="15" viewBox="0 0 218 15" fill="none" xmlns="http://www.w3.org/2000/svg">
<path fill-rule="evenodd" clip-rule="evenodd" d="M9.91634 4.95833H10.4997C11.1413 4.95833 11.6663 5.48333 11.6663 6.125V11.9583C11.6663 12.6 11.1413 13.125 10.4997 13.125H3.49967C2.85801 13.125 2.33301 12.6 2.33301 11.9583V6.125C2.33301 5.48333 2.85801 4.95833 3.49967 4.95833H4.08301V3.79167C4.08301 2.18167 5.38967 0.875 6.99967 0.875C8.60967 0.875 9.91634 2.18167 9.91634 3.79167V4.95833ZM6.99967 2.04167C6.03134 2.04167 5.24967 2.82333 5.24967 3.79167V4.95833H8.74967V3.79167C8.74967 2.82333 7.96801 2.04167 6.99967 2.04167ZM3.49967 11.9583V6.125H10.4997V11.9583H3.49967ZM8.16634 9.04167C8.16634 9.68333 7.64134 10.2083 6.99967 10.2083C6.35801 10.2083 5.83301 9.68333 5.83301 9.04167C5.83301 8.4 6.35801 7.875 6.99967 7.875C7.64134 7.875 8.16634 8.4 8.16634 9.04167Z" fill="#5874FB"/>
<path d="M23.78 12H22.6721L25.8766 3.27273H26.9675L30.1721 12H29.0641L26.4561 4.65341H26.388L23.78 12ZM24.1891 8.59091H28.655V9.52841H24.1891V8.59091ZM32.4007 3.27273V12H31.3951V3.27273H32.4007ZM35.2484 3.27273V12H34.2427V3.27273H35.2484ZM41.6586 3.27273V12H40.6017V3.27273H41.6586ZM44.6468 8.0625V12H43.6412V5.45455H44.6127V6.47727H44.698C44.8514 6.14489 45.0843 5.87784 45.3968 5.67614C45.7093 5.47159 46.1127 5.36932 46.6071 5.36932C47.0502 5.36932 47.438 5.46023 47.7704 5.64205C48.1028 5.82102 48.3613 6.09375 48.546 6.46023C48.7306 6.82386 48.823 7.28409 48.823 7.84091V12H47.8173V7.90909C47.8173 7.39489 47.6838 6.99432 47.4167 6.70739C47.1497 6.41761 46.7832 6.27273 46.3173 6.27273C45.9963 6.27273 45.7093 6.34233 45.4565 6.48153C45.2065 6.62074 45.0091 6.82386 44.8642 7.09091C44.7193 7.35795 44.6468 7.68182 44.6468 8.0625ZM53.5755 5.45455V6.30682H50.0471V5.45455H53.5755ZM51.1039 12V4.55114C51.1039 4.17614 51.1919 3.86364 51.3681 3.61364C51.5442 3.36364 51.7729 3.17614 52.0542 3.05114C52.3354 2.92614 52.6323 2.86364 52.9448 2.86364C53.1919 2.86364 53.3936 2.88352 53.5499 2.9233C53.7061 2.96307 53.8226 3 53.8993 3.03409L53.6096 3.90341C53.5584 3.88636 53.4874 3.86506 53.3965 3.83949C53.3084 3.81392 53.1919 3.80114 53.0471 3.80114C52.7147 3.80114 52.4746 3.88494 52.3269 4.05256C52.182 4.22017 52.1096 4.46591 52.1096 4.78977V12H51.1039ZM57.3745 12.1364C56.7836 12.1364 56.2651 11.9957 55.8191 11.7145C55.3759 11.4332 55.0293 11.0398 54.7793 10.5341C54.5321 10.0284 54.4086 9.4375 54.4086 8.76136C54.4086 8.07955 54.5321 7.48437 54.7793 6.97585C55.0293 6.46733 55.3759 6.07244 55.8191 5.79119C56.2651 5.50994 56.7836 5.36932 57.3745 5.36932C57.9654 5.36932 58.4824 5.50994 58.9256 5.79119C59.3716 6.07244 59.7182 6.46733 59.9654 6.97585C60.2154 7.48437 60.3404 8.07955 60.3404 8.76136C60.3404 9.4375 60.2154 10.0284 59.9654 10.5341C59.7182 11.0398 59.3716 11.4332 58.9256 11.7145C58.4824 11.9957 57.9654 12.1364 57.3745 12.1364ZM57.3745 11.233C57.8233 11.233 58.1926 11.1179 58.4824 10.8878C58.7722 10.6577 58.9867 10.3551 59.1259 9.98011C59.2651 9.60511 59.3347 9.19886 59.3347 8.76136C59.3347 8.32386 59.2651 7.91619 59.1259 7.53835C58.9867 7.16051 58.7722 6.85511 58.4824 6.62216C58.1926 6.3892 57.8233 6.27273 57.3745 6.27273C56.9256 6.27273 56.5563 6.3892 56.2665 6.62216C55.9767 6.85511 55.7623 7.16051 55.623 7.53835C55.4838 7.91619 55.4142 8.32386 55.4142 8.76136C55.4142 9.19886 55.4838 9.60511 55.623 9.98011C55.7623 10.3551 55.9767 10.6577 56.2665 10.8878C56.5563 11.1179 56.9256 11.233 57.3745 11.233ZM61.8755 12V5.45455H62.8471V6.44318H62.9153C63.0346 6.11932 63.2505 5.85653 63.563 5.65483C63.8755 5.45312 64.2278 5.35227 64.6199 5.35227C64.6937 5.35227 64.786 5.35369 64.8968 5.35653C65.0076 5.35937 65.0914 5.36364 65.1483 5.36932V6.39205C65.1142 6.38352 65.036 6.37074 64.9139 6.35369C64.7946 6.33381 64.6681 6.32386 64.5346 6.32386C64.2164 6.32386 63.9324 6.39062 63.6824 6.52415C63.4352 6.65483 63.2392 6.83665 63.0943 7.0696C62.9522 7.29972 62.8812 7.5625 62.8812 7.85795V12H61.8755ZM66.3404 12V5.45455H67.312V6.47727H67.3972C67.5336 6.12784 67.7537 5.85653 68.0577 5.66335C68.3617 5.46733 68.7267 5.36932 69.1529 5.36932C69.5847 5.36932 69.9441 5.46733 70.231 5.66335C70.5208 5.85653 70.7466 6.12784 70.9086 6.47727H70.9767C71.1444 6.1392 71.3958 5.87074 71.731 5.67188C72.0662 5.47017 72.4682 5.36932 72.937 5.36932C73.5222 5.36932 74.0009 5.55256 74.373 5.91903C74.7452 6.28267 74.9313 6.84943 74.9313 7.61932V12H73.9256V7.61932C73.9256 7.13636 73.7935 6.79119 73.5293 6.58381C73.2651 6.37642 72.954 6.27273 72.5961 6.27273C72.1358 6.27273 71.7793 6.41193 71.5265 6.69034C71.2736 6.96591 71.1472 7.31534 71.1472 7.73864V12H70.1245V7.51705C70.1245 7.14489 70.0037 6.84517 69.7623 6.6179C69.5208 6.38778 69.2097 6.27273 68.829 6.27273C68.5676 6.27273 68.3233 6.34233 68.0961 6.48153C67.8716 6.62074 67.6898 6.81392 67.5506 7.06108C67.4142 7.3054 67.3461 7.58807 67.3461 7.90909V12H66.3404ZM78.6962 12.1534C78.2814 12.1534 77.905 12.0753 77.5669 11.919C77.2289 11.7599 76.9604 11.5312 76.7615 11.233C76.5627 10.9318 76.4632 10.5682 76.4632 10.142C76.4632 9.76705 76.5371 9.46307 76.6848 9.23011C76.8326 8.99432 77.03 8.80966 77.2772 8.67614C77.5243 8.54261 77.7971 8.44318 78.0953 8.37784C78.3965 8.30966 78.699 8.25568 79.003 8.21591C79.4007 8.16477 79.7232 8.12642 79.9703 8.10085C80.2203 8.07244 80.4022 8.02557 80.5158 7.96023C80.6323 7.89489 80.6905 7.78125 80.6905 7.61932V7.58523C80.6905 7.16477 80.5755 6.83807 80.3453 6.60511C80.1181 6.37216 79.7729 6.25568 79.3098 6.25568C78.8297 6.25568 78.4533 6.3608 78.1806 6.57102C77.9078 6.78125 77.7161 7.00568 77.6053 7.24432L76.6507 6.90341C76.8212 6.50568 77.0485 6.19602 77.3326 5.97443C77.6195 5.75 77.932 5.59375 78.2701 5.50568C78.611 5.41477 78.9462 5.36932 79.2757 5.36932C79.486 5.36932 79.7275 5.39489 80.0002 5.44602C80.2757 5.49432 80.5414 5.59517 80.7971 5.74858C81.0556 5.90199 81.2701 6.13352 81.4405 6.44318C81.611 6.75284 81.6962 7.16761 81.6962 7.6875V12H80.6905V11.1136H80.6394C80.5712 11.2557 80.4576 11.4077 80.2985 11.5696C80.1394 11.7315 79.9277 11.8693 79.6635 11.983C79.3993 12.0966 79.0769 12.1534 78.6962 12.1534ZM78.8496 11.25C79.2473 11.25 79.5826 11.1719 79.8553 11.0156C80.1309 10.8594 80.3382 10.6577 80.4775 10.4105C80.6195 10.1634 80.6905 9.90341 80.6905 9.63068V8.71023C80.6479 8.76136 80.5542 8.80824 80.4093 8.85085C80.2672 8.89062 80.1025 8.92614 79.915 8.95739C79.7303 8.9858 79.5499 9.01136 79.3738 9.03409C79.2005 9.05398 79.0598 9.07102 78.9519 9.08523C78.6905 9.11932 78.4462 9.17472 78.2189 9.25142C77.9945 9.32528 77.8127 9.4375 77.6735 9.58807C77.5371 9.7358 77.4689 9.9375 77.4689 10.1932C77.4689 10.5426 77.5982 10.8068 77.8567 10.9858C78.1181 11.1619 78.449 11.25 78.8496 11.25ZM86.3784 5.45455V6.30682H82.9863V5.45455H86.3784ZM83.975 3.88636H84.9806V10.125C84.9806 10.4091 85.0218 10.6222 85.1042 10.7642C85.1895 10.9034 85.2974 10.9972 85.4281 11.0455C85.5616 11.0909 85.7022 11.1136 85.85 11.1136C85.9608 11.1136 86.0517 11.108 86.1227 11.0966C86.1937 11.0824 86.2505 11.071 86.2931 11.0625L86.4977 11.9659C86.4295 11.9915 86.3343 12.017 86.2122 12.0426C86.09 12.071 85.9352 12.0852 85.7477 12.0852C85.4636 12.0852 85.1852 12.0241 84.9125 11.902C84.6426 11.7798 84.4181 11.5938 84.2392 11.3438C84.063 11.0938 83.975 10.7784 83.975 10.3977V3.88636ZM87.8912 12V5.45455H88.8968V12H87.8912ZM88.4025 4.36364C88.2065 4.36364 88.0375 4.29688 87.8954 4.16335C87.7562 4.02983 87.6866 3.86932 87.6866 3.68182C87.6866 3.49432 87.7562 3.33381 87.8954 3.20028C88.0375 3.06676 88.2065 3 88.4025 3C88.5985 3 88.7662 3.06676 88.9054 3.20028C89.0474 3.33381 89.1184 3.49432 89.1184 3.68182C89.1184 3.86932 89.0474 4.02983 88.9054 4.16335C88.7662 4.29688 88.5985 4.36364 88.4025 4.36364ZM93.3979 12.1364C92.807 12.1364 92.2885 11.9957 91.8425 11.7145C91.3993 11.4332 91.0527 11.0398 90.8027 10.5341C90.5556 10.0284 90.432 9.4375 90.432 8.76136C90.432 8.07955 90.5556 7.48437 90.8027 6.97585C91.0527 6.46733 91.3993 6.07244 91.8425 5.79119C92.2885 5.50994 92.807 5.36932 93.3979 5.36932C93.9888 5.36932 94.5059 5.50994 94.949 5.79119C95.3951 6.07244 95.7417 6.46733 95.9888 6.97585C96.2388 7.48437 96.3638 8.07955 96.3638 8.76136C96.3638 9.4375 96.2388 10.0284 95.9888 10.5341C95.7417 11.0398 95.3951 11.4332 94.949 11.7145C94.5059 11.9957 93.9888 12.1364 93.3979 12.1364ZM93.3979 11.233C93.8468 11.233 94.2161 11.1179 94.5059 10.8878C94.7956 10.6577 95.0101 10.3551 95.1493 9.98011C95.2885 9.60511 95.3581 9.19886 95.3581 8.76136C95.3581 8.32386 95.2885 7.91619 95.1493 7.53835C95.0101 7.16051 94.7956 6.85511 94.5059 6.62216C94.2161 6.3892 93.8468 6.27273 93.3979 6.27273C92.949 6.27273 92.5797 6.3892 92.29 6.62216C92.0002 6.85511 91.7857 7.16051 91.6465 7.53835C91.5073 7.91619 91.4377 8.32386 91.4377 8.76136C91.4377 9.19886 91.5073 9.60511 91.6465 9.98011C91.7857 10.3551 92.0002 10.6577 92.29 10.8878C92.5797 11.1179 92.949 11.233 93.3979 11.233ZM98.9047 8.0625V12H97.899V5.45455H98.8706V6.47727H98.9558C99.1092 6.14489 99.3422 5.87784 99.6547 5.67614C99.9672 5.47159 100.371 5.36932 100.865 5.36932C101.308 5.36932 101.696 5.46023 102.028 5.64205C102.361 5.82102 102.619 6.09375 102.804 6.46023C102.988 6.82386 103.081 7.28409 103.081 7.84091V12H102.075V7.90909C102.075 7.39489 101.942 6.99432 101.675 6.70739C101.407 6.41761 101.041 6.27273 100.575 6.27273C100.254 6.27273 99.9672 6.34233 99.7143 6.48153C99.4643 6.62074 99.2669 6.82386 99.122 7.09091C98.9771 7.35795 98.9047 7.68182 98.9047 8.0625ZM109.555 6.92045L108.651 7.17614C108.595 7.02557 108.511 6.87926 108.4 6.73722C108.292 6.59233 108.144 6.47301 107.957 6.37926C107.769 6.28551 107.529 6.23864 107.237 6.23864C106.836 6.23864 106.502 6.33097 106.235 6.51562C105.971 6.69744 105.839 6.92898 105.839 7.21023C105.839 7.46023 105.93 7.65767 106.112 7.80256C106.294 7.94744 106.578 8.06818 106.964 8.16477L107.936 8.40341C108.521 8.54545 108.957 8.76278 109.244 9.0554C109.531 9.34517 109.674 9.71875 109.674 10.1761C109.674 10.5511 109.566 10.8864 109.35 11.1818C109.137 11.4773 108.839 11.7102 108.455 11.8807C108.072 12.0511 107.626 12.1364 107.117 12.1364C106.45 12.1364 105.897 11.9915 105.46 11.7017C105.022 11.4119 104.745 10.9886 104.629 10.4318L105.583 10.1932C105.674 10.5455 105.846 10.8097 106.099 10.9858C106.355 11.1619 106.688 11.25 107.1 11.25C107.569 11.25 107.941 11.1506 108.217 10.9517C108.495 10.75 108.634 10.5085 108.634 10.2273C108.634 10 108.555 9.80966 108.396 9.65625C108.237 9.5 107.992 9.38352 107.663 9.30682L106.572 9.05114C105.972 8.90909 105.532 8.68892 105.251 8.39062C104.972 8.08949 104.833 7.71307 104.833 7.26136C104.833 6.89205 104.937 6.56534 105.144 6.28125C105.355 5.99716 105.64 5.77415 106.001 5.61222C106.365 5.45028 106.776 5.36932 107.237 5.36932C107.884 5.36932 108.393 5.51136 108.762 5.79545C109.134 6.07955 109.399 6.45455 109.555 6.92045ZM116.489 12.1534C116.074 12.1534 115.698 12.0753 115.36 11.919C115.022 11.7599 114.753 11.5312 114.555 11.233C114.356 10.9318 114.256 10.5682 114.256 10.142C114.256 9.76705 114.33 9.46307 114.478 9.23011C114.626 8.99432 114.823 8.80966 115.07 8.67614C115.317 8.54261 115.59 8.44318 115.888 8.37784C116.189 8.30966 116.492 8.25568 116.796 8.21591C117.194 8.16477 117.516 8.12642 117.763 8.10085C118.013 8.07244 118.195 8.02557 118.309 7.96023C118.425 7.89489 118.483 7.78125 118.483 7.61932V7.58523C118.483 7.16477 118.368 6.83807 118.138 6.60511C117.911 6.37216 117.566 6.25568 117.103 6.25568C116.623 6.25568 116.246 6.3608 115.974 6.57102C115.701 6.78125 115.509 7.00568 115.398 7.24432L114.444 6.90341C114.614 6.50568 114.841 6.19602 115.126 5.97443C115.412 5.75 115.725 5.59375 116.063 5.50568C116.404 5.41477 116.739 5.36932 117.069 5.36932C117.279 5.36932 117.52 5.39489 117.793 5.44602C118.069 5.49432 118.334 5.59517 118.59 5.74858C118.849 5.90199 119.063 6.13352 119.233 6.44318C119.404 6.75284 119.489 7.16761 119.489 7.6875V12H118.483V11.1136H118.432C118.364 11.2557 118.251 11.4077 118.091 11.5696C117.932 11.7315 117.721 11.8693 117.456 11.983C117.192 12.0966 116.87 12.1534 116.489 12.1534ZM116.643 11.25C117.04 11.25 117.376 11.1719 117.648 11.0156C117.924 10.8594 118.131 10.6577 118.27 10.4105C118.412 10.1634 118.483 9.90341 118.483 9.63068V8.71023C118.441 8.76136 118.347 8.80824 118.202 8.85085C118.06 8.89062 117.895 8.92614 117.708 8.95739C117.523 8.9858 117.343 9.01136 117.167 9.03409C116.993 9.05398 116.853 9.07102 116.745 9.08523C116.483 9.11932 116.239 9.17472 116.012 9.25142C115.787 9.32528 115.606 9.4375 115.466 9.58807C115.33 9.7358 115.262 9.9375 115.262 10.1932C115.262 10.5426 115.391 10.8068 115.65 10.9858C115.911 11.1619 116.242 11.25 116.643 11.25ZM121.325 12V5.45455H122.296V6.44318H122.365C122.484 6.11932 122.7 5.85653 123.012 5.65483C123.325 5.45312 123.677 5.35227 124.069 5.35227C124.143 5.35227 124.235 5.35369 124.346 5.35653C124.457 5.35937 124.541 5.36364 124.597 5.36932V6.39205C124.563 6.38352 124.485 6.37074 124.363 6.35369C124.244 6.33381 124.117 6.32386 123.984 6.32386C123.666 6.32386 123.382 6.39062 123.132 6.52415C122.884 6.65483 122.688 6.83665 122.544 7.0696C122.401 7.29972 122.33 7.5625 122.33 7.85795V12H121.325ZM128.335 12.1364C127.704 12.1364 127.16 11.9972 126.703 11.7188C126.248 11.4375 125.897 11.0455 125.65 10.5426C125.406 10.0369 125.284 9.44886 125.284 8.77841C125.284 8.10795 125.406 7.51705 125.65 7.00568C125.897 6.49148 126.241 6.09091 126.681 5.80398C127.124 5.5142 127.642 5.36932 128.232 5.36932C128.573 5.36932 128.91 5.42614 129.242 5.53977C129.575 5.65341 129.877 5.83807 130.15 6.09375C130.423 6.34659 130.64 6.68182 130.802 7.09943C130.964 7.51705 131.045 8.03125 131.045 8.64205V9.06818H125.999V8.19886H130.022C130.022 7.82955 129.948 7.5 129.801 7.21023C129.656 6.92045 129.448 6.69176 129.178 6.52415C128.911 6.35653 128.596 6.27273 128.232 6.27273C127.832 6.27273 127.485 6.37216 127.193 6.57102C126.903 6.76705 126.68 7.02273 126.524 7.33807C126.367 7.65341 126.289 7.99148 126.289 8.35227V8.93182C126.289 9.42614 126.374 9.84517 126.545 10.1889C126.718 10.5298 126.958 10.7898 127.265 10.9688C127.572 11.1449 127.928 11.233 128.335 11.233C128.599 11.233 128.838 11.196 129.051 11.1222C129.267 11.0455 129.453 10.9318 129.609 10.7812C129.765 10.6278 129.886 10.4375 129.971 10.2102L130.943 10.483C130.84 10.8125 130.669 11.1023 130.427 11.3523C130.186 11.5994 129.887 11.7926 129.532 11.9318C129.177 12.0682 128.778 12.1364 128.335 12.1364ZM140.586 6.92045L139.683 7.17614C139.626 7.02557 139.542 6.87926 139.431 6.73722C139.323 6.59233 139.176 6.47301 138.988 6.37926C138.801 6.28551 138.561 6.23864 138.268 6.23864C137.867 6.23864 137.534 6.33097 137.267 6.51562C137.002 6.69744 136.87 6.92898 136.87 7.21023C136.87 7.46023 136.961 7.65767 137.143 7.80256C137.325 7.94744 137.609 8.06818 137.995 8.16477L138.967 8.40341C139.552 8.54545 139.988 8.76278 140.275 9.0554C140.562 9.34517 140.705 9.71875 140.705 10.1761C140.705 10.5511 140.597 10.8864 140.382 11.1818C140.169 11.4773 139.87 11.7102 139.487 11.8807C139.103 12.0511 138.657 12.1364 138.149 12.1364C137.481 12.1364 136.928 11.9915 136.491 11.7017C136.053 11.4119 135.776 10.9886 135.66 10.4318L136.615 10.1932C136.705 10.5455 136.877 10.8097 137.13 10.9858C137.386 11.1619 137.72 11.25 138.132 11.25C138.6 11.25 138.972 11.1506 139.248 10.9517C139.526 10.75 139.666 10.5085 139.666 10.2273C139.666 10 139.586 9.80966 139.427 9.65625C139.268 9.5 139.024 9.38352 138.694 9.30682L137.603 9.05114C137.004 8.90909 136.563 8.68892 136.282 8.39062C136.004 8.08949 135.865 7.71307 135.865 7.26136C135.865 6.89205 135.968 6.56534 136.176 6.28125C136.386 5.99716 136.671 5.77415 137.032 5.61222C137.396 5.45028 137.808 5.36932 138.268 5.36932C138.916 5.36932 139.424 5.51136 139.794 5.79545C140.166 6.07955 140.43 6.45455 140.586 6.92045ZM144.145 12.1534C143.731 12.1534 143.354 12.0753 143.016 11.919C142.678 11.7599 142.41 11.5312 142.211 11.233C142.012 10.9318 141.912 10.5682 141.912 10.142C141.912 9.76705 141.986 9.46307 142.134 9.23011C142.282 8.99432 142.479 8.80966 142.726 8.67614C142.974 8.54261 143.246 8.44318 143.545 8.37784C143.846 8.30966 144.148 8.25568 144.452 8.21591C144.85 8.16477 145.172 8.12642 145.42 8.10085C145.67 8.07244 145.851 8.02557 145.965 7.96023C146.081 7.89489 146.14 7.78125 146.14 7.61932V7.58523C146.14 7.16477 146.025 6.83807 145.795 6.60511C145.567 6.37216 145.222 6.25568 144.759 6.25568C144.279 6.25568 143.903 6.3608 143.63 6.57102C143.357 6.78125 143.165 7.00568 143.055 7.24432L142.1 6.90341C142.27 6.50568 142.498 6.19602 142.782 5.97443C143.069 5.75 143.381 5.59375 143.719 5.50568C144.06 5.41477 144.395 5.36932 144.725 5.36932C144.935 5.36932 145.177 5.39489 145.449 5.44602C145.725 5.49432 145.991 5.59517 146.246 5.74858C146.505 5.90199 146.719 6.13352 146.89 6.44318C147.06 6.75284 147.145 7.16761 147.145 7.6875V12H146.14V11.1136H146.089C146.02 11.2557 145.907 11.4077 145.748 11.5696C145.589 11.7315 145.377 11.8693 145.113 11.983C144.849 12.0966 144.526 12.1534 144.145 12.1534ZM144.299 11.25C144.697 11.25 145.032 11.1719 145.305 11.0156C145.58 10.8594 145.787 10.6577 145.927 10.4105C146.069 10.1634 146.14 9.90341 146.14 9.63068V8.71023C146.097 8.76136 146.003 8.80824 145.858 8.85085C145.716 8.89062 145.552 8.92614 145.364 8.95739C145.18 8.9858 144.999 9.01136 144.823 9.03409C144.65 9.05398 144.509 9.07102 144.401 9.08523C144.14 9.11932 143.895 9.17472 143.668 9.25142C143.444 9.32528 143.262 9.4375 143.123 9.58807C142.986 9.7358 142.918 9.9375 142.918 10.1932C142.918 10.5426 143.047 10.8068 143.306 10.9858C143.567 11.1619 143.898 11.25 144.299 11.25ZM151.896 5.45455V6.30682H148.367V5.45455H151.896ZM149.424 12V4.55114C149.424 4.17614 149.512 3.86364 149.688 3.61364C149.865 3.36364 150.093 3.17614 150.374 3.05114C150.656 2.92614 150.953 2.86364 151.265 2.86364C151.512 2.86364 151.714 2.88352 151.87 2.9233C152.026 2.96307 152.143 3 152.22 3.03409L151.93 3.90341C151.879 3.88636 151.808 3.86506 151.717 3.83949C151.629 3.81392 151.512 3.80114 151.367 3.80114C151.035 3.80114 150.795 3.88494 150.647 4.05256C150.502 4.22017 150.43 4.46591 150.43 4.78977V12H149.424ZM155.78 12.1364C155.149 12.1364 154.605 11.9972 154.148 11.7188C153.693 11.4375 153.343 11.0455 153.095 10.5426C152.851 10.0369 152.729 9.44886 152.729 8.77841C152.729 8.10795 152.851 7.51705 153.095 7.00568C153.343 6.49148 153.686 6.09091 154.127 5.80398C154.57 5.5142 155.087 5.36932 155.678 5.36932C156.019 5.36932 156.355 5.42614 156.688 5.53977C157.02 5.65341 157.323 5.83807 157.595 6.09375C157.868 6.34659 158.085 6.68182 158.247 7.09943C158.409 7.51705 158.49 8.03125 158.49 8.64205V9.06818H153.445V8.19886H157.468C157.468 7.82955 157.394 7.5 157.246 7.21023C157.101 6.92045 156.894 6.69176 156.624 6.52415C156.357 6.35653 156.041 6.27273 155.678 6.27273C155.277 6.27273 154.931 6.37216 154.638 6.57102C154.348 6.76705 154.125 7.02273 153.969 7.33807C153.813 7.65341 153.735 7.99148 153.735 8.35227V8.93182C153.735 9.42614 153.82 9.84517 153.99 10.1889C154.164 10.5298 154.404 10.7898 154.71 10.9688C155.017 11.1449 155.374 11.233 155.78 11.233C156.044 11.233 156.283 11.196 156.496 11.1222C156.712 11.0455 156.898 10.9318 157.054 10.7812C157.21 10.6278 157.331 10.4375 157.416 10.2102L158.388 10.483C158.286 10.8125 158.114 11.1023 157.872 11.3523C157.631 11.5994 157.333 11.7926 156.977 11.9318C156.622 12.0682 156.223 12.1364 155.78 12.1364ZM161.026 3.27273V12H160.02V3.27273H161.026ZM163.515 14.4545C163.345 14.4545 163.193 14.4403 163.059 14.4119C162.926 14.3864 162.834 14.3608 162.782 14.3352L163.038 13.4489C163.282 13.5114 163.498 13.5341 163.686 13.517C163.873 13.5 164.04 13.4162 164.184 13.2656C164.332 13.1179 164.467 12.8778 164.589 12.5455L164.777 12.0341L162.356 5.45455H163.447L165.254 10.6705H165.322L167.129 5.45455H168.22L165.442 12.9545C165.317 13.2926 165.162 13.5724 164.977 13.794C164.792 14.0185 164.578 14.1847 164.334 14.2926C164.092 14.4006 163.819 14.4545 163.515 14.4545ZM177.559 6.92045L176.655 7.17614C176.599 7.02557 176.515 6.87926 176.404 6.73722C176.296 6.59233 176.148 6.47301 175.961 6.37926C175.773 6.28551 175.533 6.23864 175.241 6.23864C174.84 6.23864 174.506 6.33097 174.239 6.51562C173.975 6.69744 173.843 6.92898 173.843 7.21023C173.843 7.46023 173.934 7.65767 174.116 7.80256C174.297 7.94744 174.581 8.06818 174.968 8.16477L175.939 8.40341C176.525 8.54545 176.961 8.76278 177.248 9.0554C177.535 9.34517 177.678 9.71875 177.678 10.1761C177.678 10.5511 177.57 10.8864 177.354 11.1818C177.141 11.4773 176.843 11.7102 176.459 11.8807C176.076 12.0511 175.63 12.1364 175.121 12.1364C174.454 12.1364 173.901 11.9915 173.464 11.7017C173.026 11.4119 172.749 10.9886 172.633 10.4318L173.587 10.1932C173.678 10.5455 173.85 10.8097 174.103 10.9858C174.358 11.1619 174.692 11.25 175.104 11.25C175.573 11.25 175.945 11.1506 176.221 10.9517C176.499 10.75 176.638 10.5085 176.638 10.2273C176.638 10 176.559 9.80966 176.4 9.65625C176.241 9.5 175.996 9.38352 175.667 9.30682L174.576 9.05114C173.976 8.90909 173.536 8.68892 173.255 8.39062C172.976 8.08949 172.837 7.71307 172.837 7.26136C172.837 6.89205 172.941 6.56534 173.148 6.28125C173.358 5.99716 173.644 5.77415 174.005 5.61222C174.368 5.45028 174.78 5.36932 175.241 5.36932C175.888 5.36932 176.397 5.51136 176.766 5.79545C177.138 6.07955 177.403 6.45455 177.559 6.92045ZM181.936 12.1364C181.306 12.1364 180.762 11.9972 180.304 11.7188C179.85 11.4375 179.499 11.0455 179.252 10.5426C179.007 10.0369 178.885 9.44886 178.885 8.77841C178.885 8.10795 179.007 7.51705 179.252 7.00568C179.499 6.49148 179.843 6.09091 180.283 5.80398C180.726 5.5142 181.243 5.36932 181.834 5.36932C182.175 5.36932 182.512 5.42614 182.844 5.53977C183.176 5.65341 183.479 5.83807 183.752 6.09375C184.024 6.34659 184.242 6.68182 184.404 7.09943C184.566 7.51705 184.646 8.03125 184.646 8.64205V9.06818H179.601V8.19886H183.624C183.624 7.82955 183.55 7.5 183.402 7.21023C183.257 6.92045 183.05 6.69176 182.78 6.52415C182.513 6.35653 182.198 6.27273 181.834 6.27273C181.433 6.27273 181.087 6.37216 180.794 6.57102C180.504 6.76705 180.281 7.02273 180.125 7.33807C179.969 7.65341 179.891 7.99148 179.891 8.35227V8.93182C179.891 9.42614 179.976 9.84517 180.146 10.1889C180.32 10.5298 180.56 10.7898 180.867 10.9688C181.173 11.1449 181.53 11.233 181.936 11.233C182.2 11.233 182.439 11.196 182.652 11.1222C182.868 11.0455 183.054 10.9318 183.21 10.7812C183.367 10.6278 183.487 10.4375 183.573 10.2102L184.544 10.483C184.442 10.8125 184.27 11.1023 184.029 11.3523C183.787 11.5994 183.489 11.7926 183.134 11.9318C182.779 12.0682 182.379 12.1364 181.936 12.1364ZM188.835 12.1364C188.222 12.1364 187.693 11.9915 187.25 11.7017C186.807 11.4119 186.466 11.0128 186.227 10.5043C185.989 9.99574 185.869 9.41477 185.869 8.76136C185.869 8.09659 185.992 7.50994 186.236 7.00142C186.483 6.49006 186.827 6.09091 187.267 5.80398C187.71 5.5142 188.227 5.36932 188.818 5.36932C189.279 5.36932 189.693 5.45455 190.063 5.625C190.432 5.79545 190.735 6.03409 190.97 6.34091C191.206 6.64773 191.352 7.00568 191.409 7.41477H190.404C190.327 7.11648 190.156 6.85227 189.892 6.62216C189.631 6.3892 189.279 6.27273 188.835 6.27273C188.443 6.27273 188.1 6.375 187.804 6.57955C187.512 6.78125 187.283 7.06676 187.118 7.43608C186.956 7.80256 186.875 8.23295 186.875 8.72727C186.875 9.23295 186.955 9.6733 187.114 10.0483C187.276 10.4233 187.503 10.7145 187.796 10.9219C188.091 11.1293 188.438 11.233 188.835 11.233C189.097 11.233 189.334 11.1875 189.547 11.0966C189.76 11.0057 189.941 10.875 190.088 10.7045C190.236 10.5341 190.341 10.3295 190.404 10.0909H191.409C191.352 10.4773 191.212 10.8253 190.987 11.1349C190.766 11.4418 190.472 11.6861 190.105 11.8679C189.742 12.0469 189.318 12.1364 188.835 12.1364ZM197.004 9.32386V5.45455H198.01V12H197.004V10.892H196.936C196.783 11.2244 196.544 11.5071 196.22 11.7401C195.896 11.9702 195.487 12.0852 194.993 12.0852C194.584 12.0852 194.22 11.9957 193.902 11.8168C193.584 11.6349 193.334 11.3622 193.152 10.9986C192.97 10.6321 192.879 10.1705 192.879 9.61364V5.45455H193.885V9.54545C193.885 10.0227 194.019 10.4034 194.286 10.6875C194.556 10.9716 194.899 11.1136 195.317 11.1136C195.567 11.1136 195.821 11.0497 196.08 10.9219C196.341 10.794 196.56 10.598 196.736 10.3338C196.915 10.0696 197.004 9.73295 197.004 9.32386ZM199.852 12V5.45455H200.824V6.44318H200.892C201.011 6.11932 201.227 5.85653 201.54 5.65483C201.852 5.45312 202.204 5.35227 202.596 5.35227C202.67 5.35227 202.763 5.35369 202.873 5.35653C202.984 5.35937 203.068 5.36364 203.125 5.36932V6.39205C203.091 6.38352 203.013 6.37074 202.89 6.35369C202.771 6.33381 202.645 6.32386 202.511 6.32386C202.193 6.32386 201.909 6.39062 201.659 6.52415C201.412 6.65483 201.216 6.83665 201.071 7.0696C200.929 7.29972 200.858 7.5625 200.858 7.85795V12H199.852ZM206.862 12.1364C206.231 12.1364 205.687 11.9972 205.23 11.7188C204.775 11.4375 204.425 11.0455 204.177 10.5426C203.933 10.0369 203.811 9.44886 203.811 8.77841C203.811 8.10795 203.933 7.51705 204.177 7.00568C204.425 6.49148 204.768 6.09091 205.209 5.80398C205.652 5.5142 206.169 5.36932 206.76 5.36932C207.101 5.36932 207.437 5.42614 207.77 5.53977C208.102 5.65341 208.405 5.83807 208.677 6.09375C208.95 6.34659 209.167 6.68182 209.329 7.09943C209.491 7.51705 209.572 8.03125 209.572 8.64205V9.06818H204.527V8.19886H208.55C208.55 7.82955 208.476 7.5 208.328 7.21023C208.183 6.92045 207.976 6.69176 207.706 6.52415C207.439 6.35653 207.123 6.27273 206.76 6.27273C206.359 6.27273 206.013 6.37216 205.72 6.57102C205.43 6.76705 205.207 7.02273 205.051 7.33807C204.895 7.65341 204.817 7.99148 204.817 8.35227V8.93182C204.817 9.42614 204.902 9.84517 205.072 10.1889C205.246 10.5298 205.486 10.7898 205.792 10.9688C206.099 11.1449 206.456 11.233 206.862 11.233C207.126 11.233 207.365 11.196 207.578 11.1222C207.794 11.0455 207.98 10.9318 208.136 10.7812C208.292 10.6278 208.413 10.4375 208.498 10.2102L209.47 10.483C209.368 10.8125 209.196 11.1023 208.954 11.3523C208.713 11.5994 208.415 11.7926 208.059 11.9318C207.704 12.0682 207.305 12.1364 206.862 12.1364ZM213.574 12.1364C213.028 12.1364 212.547 11.9986 212.129 11.723C211.711 11.4446 211.385 11.0526 211.149 10.5469C210.913 10.0384 210.795 9.4375 210.795 8.74432C210.795 8.05682 210.913 7.46023 211.149 6.95455C211.385 6.44886 211.713 6.05824 212.133 5.78267C212.554 5.5071 213.04 5.36932 213.591 5.36932C214.017 5.36932 214.354 5.44034 214.601 5.58239C214.851 5.72159 215.041 5.88068 215.172 6.05966C215.305 6.2358 215.409 6.38068 215.483 6.49432H215.568V3.27273H216.574V12H215.602V10.9943H215.483C215.409 11.1136 215.304 11.2642 215.167 11.446C215.031 11.625 214.836 11.7855 214.584 11.9276C214.331 12.0668 213.994 12.1364 213.574 12.1364ZM213.71 11.233C214.113 11.233 214.454 11.1278 214.733 10.9176C215.011 10.7045 215.223 10.4105 215.368 10.0355C215.513 9.65767 215.585 9.22159 215.585 8.72727C215.585 8.23864 215.514 7.81108 215.372 7.4446C215.23 7.07528 215.02 6.78835 214.741 6.58381C214.463 6.37642 214.119 6.27273 213.71 6.27273C213.284 6.27273 212.929 6.3821 212.645 6.60085C212.363 6.81676 212.152 7.1108 212.01 7.48295C211.871 7.85227 211.801 8.26705 211.801 8.72727C211.801 9.19318 211.872 9.61648 212.014 9.99716C212.159 10.375 212.372 10.6761 212.653 10.9006C212.937 11.1222 213.29 11.233 213.71 11.233Z" fill="#5874FB"/>
</svg>
