<svg width="52" height="52" viewBox="0 0 52 52" fill="none" xmlns="http://www.w3.org/2000/svg">
<path d="M1.86032 18.1565L26 0.618033L50.1397 18.1565L40.9191 46.5344H11.0809L1.86032 18.1565Z" stroke="#0E842C"/>
<path d="M17.2939 33.0669C17.2939 37.0717 17.2939 38 17.2939 38C17.2939 38 25.8255 38 25.7967 38L21.6471 29.0041C21.6471 29.0041 17.2939 29.0621 17.2939 33.0669Z" fill="#0E842C"/>
<path d="M34.7056 33.0669C34.7056 29.0621 30.3528 29.0041 30.3528 29.0041L26.2032 38C26.174 38 34.706 38 34.706 38C34.706 38 34.7056 37.0717 34.7056 33.0669Z" fill="#0E842C"/>
<path d="M23.0107 29.0041L25.9997 35.6206L28.9886 29.0041H25.9997H23.0107Z" fill="#0E842C"/>
<path d="M20.8477 26.8623L32.8942 20.4313L20.8477 14V26.8623Z" fill="#0E842C"/>
</svg>
