<svg width="52" height="52" viewBox="0 0 52 52" fill="none" xmlns="http://www.w3.org/2000/svg">
<path d="M1.86032 18.1565L26 0.618033L50.1397 18.1565L40.9191 46.5344H11.0809L1.86032 18.1565Z" stroke="#0E842C"/>
<path d="M24.3906 19.1507C25.8131 19.1507 26.9661 17.9976 26.9661 16.5749C26.9661 15.1527 25.8131 14 24.3906 14C22.9686 14 21.8154 15.1527 21.8154 16.5749C21.8155 17.9976 22.9686 19.1507 24.3906 19.1507Z" fill="#0E842C"/>
<path d="M36.3421 35.8058L32.5562 33.3854L29.5056 28.5924L28.5015 22.9265L31.7688 22.6229L34.5801 24.4411C34.9578 24.6852 35.4564 24.6162 35.7528 24.2785L35.769 24.2597C36.0981 23.8854 36.0632 23.3157 35.6906 22.9848L33.1745 20.748C32.9028 20.507 32.5562 20.3677 32.1934 20.3541L25.9151 20.0041C25.7218 19.9934 25.5417 20.0079 25.5417 20.0079C25.4608 20.0148 25.3792 20.0245 25.2977 20.0382C24.8404 20.117 24.4299 20.306 24.0886 20.573L19.4721 23.3604L16.5641 21.7338C16.1126 21.4813 15.5426 21.6311 15.2741 22.0731L15.2375 22.1332C15.1045 22.3525 15.0642 22.6152 15.1259 22.8635C15.1875 23.1121 15.3459 23.3259 15.566 23.457L19.0313 25.5253C19.4625 25.7829 19.9877 25.8292 20.4576 25.6517L23.3815 24.5463L24.3549 28.4715L20.2482 28.4553C19.7033 28.4536 19.1859 28.6955 18.8383 29.1153C18.491 29.5352 18.3498 30.0883 18.4535 30.6236L19.5417 36.2265C19.6622 36.8469 20.2502 37.2625 20.8755 37.1688L20.9222 37.1616C21.5409 37.0687 21.9797 36.5097 21.9224 35.8867L21.5539 31.872L27.2684 32.0526L29.9451 34.7493C30.3177 35.1253 30.7435 35.4451 31.2081 35.6984L35.1839 37.8702C35.7409 38.158 36.426 37.9519 36.7318 37.4043L36.7539 37.366C37.0588 36.8196 36.877 36.1303 36.3421 35.8058Z" fill="#0E842C"/>
</svg>
