<svg width="52" height="52" viewBox="0 0 52 52" fill="none" xmlns="http://www.w3.org/2000/svg">
<path d="M1.86032 18.1565L26 0.618033L50.1397 18.1565L40.9191 46.5344H11.0809L1.86032 18.1565Z" stroke="#0E842C"/>
<g clip-path="url(#clip0_230_1129)">
<path d="M35.4609 24.7258H16.6953L25.8542 16.4627L35.4609 24.7258Z" fill="#EDF2F8"/>
<path d="M35.4602 25.0347H16.6946C16.5711 25.0347 16.4475 24.9575 16.4012 24.8339C16.3548 24.7103 16.3857 24.5868 16.4784 24.4941L25.6372 16.2311C25.7454 16.123 25.9307 16.123 26.0388 16.2311L35.661 24.4941C35.7537 24.5713 35.8 24.7103 35.7537 24.8339C35.7074 24.9575 35.5838 25.0347 35.4602 25.0347ZM17.4978 24.4169H34.6262L25.8535 16.8798L17.4978 24.4169Z" fill="#0E842C"/>
<path d="M24.4795 20.4166C24.4795 20.6134 24.5182 20.8082 24.5935 20.99C24.6688 21.1718 24.7791 21.337 24.9182 21.4761C25.0574 21.6153 25.2225 21.7256 25.4043 21.8009C25.5861 21.8762 25.7809 21.915 25.9777 21.915C26.1744 21.915 26.3692 21.8762 26.551 21.8009C26.7328 21.7256 26.898 21.6153 27.0371 21.4761C27.1762 21.337 27.2865 21.1718 27.3618 20.99C27.4371 20.8082 27.4758 20.6134 27.4758 20.4166C27.4758 20.2199 27.4371 20.0251 27.3618 19.8433C27.2865 19.6615 27.1762 19.4963 27.0371 19.3572C26.898 19.218 26.7328 19.1077 26.551 19.0324C26.3692 18.9571 26.1744 18.9183 25.9777 18.9183C25.7809 18.9183 25.5861 18.9571 25.4043 19.0324C25.2225 19.1077 25.0574 19.218 24.9182 19.3572C24.7791 19.4963 24.6688 19.6615 24.5935 19.8433C24.5182 20.0251 24.4795 20.2199 24.4795 20.4166Z" fill="#C2CDDC"/>
<path d="M25.977 22.2083C24.9885 22.2083 24.1699 21.4051 24.1699 20.4012C24.1699 19.3973 24.9731 18.5941 25.977 18.5941C26.9655 18.5941 27.784 19.3973 27.784 20.4012C27.784 21.4051 26.9655 22.2083 25.977 22.2083ZM25.977 19.2274C25.3283 19.2274 24.7877 19.7525 24.7877 20.4167C24.7877 21.0808 25.3128 21.6059 25.977 21.6059C26.6257 21.6059 27.1662 21.0808 27.1662 20.4167C27.1662 19.7525 26.6257 19.2274 25.977 19.2274Z" fill="#0E842C"/>
<path d="M16.7411 24.7258H35.2441C35.4912 24.7258 35.6766 24.9266 35.6766 25.1583V25.5598C35.6766 25.8069 35.4758 25.9923 35.2441 25.9923H16.7411C16.4939 25.9923 16.3086 25.7915 16.3086 25.5598V25.1583C16.3086 24.9266 16.5094 24.7258 16.7411 24.7258Z" fill="white"/>
<path d="M35.2598 26.3166H16.7414C16.3243 26.3166 16 25.9768 16 25.5753V25.1737C16 24.7567 16.3398 24.4323 16.7414 24.4323H35.2444C35.6614 24.4323 35.9858 24.7721 35.9858 25.1737V25.5753C36.0012 25.9768 35.6614 26.3166 35.2598 26.3166ZM16.7414 25.0347C16.6641 25.0347 16.6178 25.0965 16.6178 25.1582V25.5598C16.6178 25.637 16.6796 25.6834 16.7414 25.6834H35.2444C35.3216 25.6834 35.368 25.6216 35.368 25.5598V25.1582C35.368 25.081 35.3062 25.0347 35.2444 25.0347H16.7414Z" fill="#0E842C"/>
<path d="M19.043 25.9923H21.5759V26.7645C21.5759 27.0116 21.3752 27.197 21.1435 27.197H19.4909C19.2438 27.197 19.0584 26.9962 19.0584 26.7645V25.9923H19.043Z" fill="#C2CDDC"/>
<path d="M21.143 27.5213H19.4904C19.0734 27.5213 18.749 27.1815 18.749 26.78V26.0077C18.749 25.8378 18.888 25.6988 19.0579 25.6988H21.5909C21.7608 25.6988 21.8998 25.8378 21.8998 26.0077V26.78C21.8843 27.1815 21.56 27.5213 21.143 27.5213ZM19.3514 26.3012V26.7645C19.3514 26.8417 19.4132 26.8881 19.4749 26.8881H21.143C21.2202 26.8881 21.2666 26.8263 21.2666 26.7645V26.3012H19.3514Z" fill="#0E842C"/>
<path d="M19.4909 31.8614H21.1589C21.406 31.8614 21.5914 32.0621 21.5914 32.2938V33.0661H19.043V32.2938C19.043 32.0467 19.2438 31.8614 19.4909 31.8614Z" fill="#C2CDDC"/>
<path d="M21.5753 33.375H19.0423C18.8724 33.375 18.7334 33.236 18.7334 33.0661V32.2938C18.7334 31.8768 19.0732 31.5525 19.4748 31.5525H21.1428C21.5598 31.5525 21.8842 31.8922 21.8842 32.2938V33.0661C21.8842 33.236 21.7606 33.375 21.5753 33.375ZM19.3512 32.7572H21.2664V32.2938C21.2664 32.2166 21.2046 32.1703 21.1428 32.1703H19.4902C19.413 32.1703 19.3666 32.232 19.3666 32.2938V32.7572H19.3512Z" fill="#0E842C"/>
<path d="M19.6914 27.2124H20.927V31.8614H19.6914V27.2124Z" fill="#F3F3F3"/>
<path d="M20.9273 32.1703H19.6917C19.5218 32.1703 19.3828 32.0312 19.3828 31.8614V27.2124C19.3828 27.0425 19.5218 26.9035 19.6917 26.9035H20.9273C21.0972 26.9035 21.2362 27.0425 21.2362 27.2124V31.8614C21.2362 32.0312 21.0972 32.1703 20.9273 32.1703ZM20.0006 31.5525H20.6184V27.5213H20.0006V31.5525Z" fill="#0E842C"/>
<path d="M22.7031 25.9923H25.2361V26.7645C25.2361 27.0116 25.0353 27.197 24.8036 27.197H23.1356C22.8885 27.197 22.7031 26.9962 22.7031 26.7645V25.9923Z" fill="#C2CDDC"/>
<path d="M24.8039 27.5213H23.1359C22.7189 27.5213 22.3945 27.1815 22.3945 26.78V26.0386V26.0077C22.3945 25.8378 22.5335 25.6988 22.7034 25.6988H25.2364C25.4063 25.6988 25.5453 25.8378 25.5453 26.0077V26.78C25.5453 27.1815 25.2055 27.5213 24.8039 27.5213ZM23.0123 26.3012V26.7645C23.0123 26.8417 23.0741 26.8881 23.1359 26.8881H24.8039C24.8812 26.8881 24.9275 26.8263 24.9275 26.7645V26.3012H23.0123Z" fill="#0E842C"/>
<path d="M23.1356 31.8614H24.7882C25.0353 31.8614 25.2207 32.0621 25.2207 32.2938V33.0661H22.7031V32.2938C22.7031 32.0467 22.8885 31.8614 23.1356 31.8614Z" fill="#C2CDDC"/>
<path d="M25.2364 33.375H22.7034C22.5335 33.375 22.3945 33.236 22.3945 33.0661V32.2938C22.3945 31.8768 22.7343 31.5525 23.1359 31.5525H24.8039C25.221 31.5525 25.5453 31.8922 25.5453 32.2938V33.0661C25.5453 33.236 25.4063 33.375 25.2364 33.375ZM23.0123 32.7572H24.9275V32.2938C24.9275 32.2166 24.8657 32.1703 24.8039 32.1703H23.1359C23.0587 32.1703 23.0123 32.232 23.0123 32.2938V32.7572Z" fill="#0E842C"/>
<path d="M23.3516 27.2124H24.5872V31.8614H23.3516V27.2124Z" fill="#F3F3F3"/>
<path d="M24.5875 32.1703H23.3519C23.182 32.1703 23.043 32.0312 23.043 31.8614V27.2124C23.043 27.0425 23.182 26.9035 23.3519 26.9035H24.5875C24.7574 26.9035 24.8964 27.0425 24.8964 27.2124V31.8614C24.8964 32.0312 24.7574 32.1703 24.5875 32.1703ZM23.6608 31.5525H24.2786V27.5213H23.6608V31.5525Z" fill="#0E842C"/>
<path d="M26.5176 25.9923H29.0505V26.7645C29.0505 27.0116 28.8498 27.197 28.6181 27.197H26.95C26.7029 27.197 26.5176 26.9962 26.5176 26.7645V25.9923Z" fill="#C2CDDC"/>
<path d="M28.6186 27.5213H26.966C26.549 27.5213 26.2246 27.1815 26.2246 26.78V26.0386V26.0077C26.2246 25.8378 26.3636 25.6988 26.5335 25.6988H29.0665C29.2364 25.6988 29.3754 25.8378 29.3754 26.0077V26.78C29.3599 27.1815 29.0356 27.5213 28.6186 27.5213ZM26.827 26.3012V26.7645C26.827 26.8417 26.8887 26.8881 26.9505 26.8881H28.6186C28.6958 26.8881 28.7421 26.8263 28.7421 26.7645V26.3012H26.827Z" fill="#0E842C"/>
<path d="M26.95 31.8614H28.6026C28.8498 31.8614 29.0351 32.0621 29.0351 32.2938V33.0661H26.5176V32.2938C26.5176 32.0467 26.7184 31.8614 26.95 31.8614Z" fill="#C2CDDC"/>
<path d="M29.0509 33.375H26.5179C26.348 33.375 26.209 33.236 26.209 33.0661V32.2938C26.209 31.8768 26.5488 31.5525 26.9503 31.5525H28.6184C29.0354 31.5525 29.3598 31.8922 29.3598 32.2938V33.0661C29.3598 33.236 29.2207 33.375 29.0509 33.375ZM26.8268 32.7572H28.742V32.2938C28.742 32.2166 28.6802 32.1703 28.6184 32.1703H26.9503C26.8731 32.1703 26.8268 32.232 26.8268 32.2938V32.7572Z" fill="#0E842C"/>
<path d="M27.167 27.2124H28.4026V31.8614H27.167V27.2124Z" fill="#F3F3F3"/>
<path d="M28.4019 32.1703H27.1663C26.9964 32.1703 26.8574 32.0312 26.8574 31.8614V27.2124C26.8574 27.0425 26.9964 26.9035 27.1663 26.9035H28.4019C28.5718 26.9035 28.7108 27.0425 28.7108 27.2124V31.8614C28.7108 32.0312 28.5718 32.1703 28.4019 32.1703ZM27.4752 31.5525H28.093V27.5213H27.4752V31.5525Z" fill="#0E842C"/>
<path d="M30.1943 25.9923H32.7273V26.7645C32.7273 27.0116 32.5265 27.197 32.2948 27.197H30.6268C30.3797 27.197 30.1943 26.9962 30.1943 26.7645V25.9923Z" fill="#C2CDDC"/>
<path d="M32.2942 27.5213H30.6261C30.2091 27.5213 29.8848 27.1815 29.8848 26.78V26.0386V26.0077C29.8848 25.8378 30.0238 25.6988 30.1937 25.6988H32.7266C32.8965 25.6988 33.0355 25.8378 33.0355 26.0077V26.78C33.0355 27.1815 32.6957 27.5213 32.2942 27.5213ZM30.5026 26.3012V26.7645C30.5026 26.8417 30.5643 26.8881 30.6261 26.8881H32.2942C32.3714 26.8881 32.4177 26.8263 32.4177 26.7645V26.3012H30.5026Z" fill="#0E842C"/>
<path d="M30.6268 31.8614H32.2948C32.542 31.8614 32.7273 32.0621 32.7273 32.2938V33.0661H30.1943V32.2938C30.1943 32.0467 30.3797 31.8614 30.6268 31.8614Z" fill="#C2CDDC"/>
<path d="M32.7266 33.375H30.1937C30.0238 33.375 29.8848 33.236 29.8848 33.0661V32.2938C29.8848 31.8768 30.2246 31.5525 30.6261 31.5525H32.2942C32.7112 31.5525 33.0355 31.8922 33.0355 32.2938V33.0661C33.0355 33.236 32.8965 33.375 32.7266 33.375ZM30.5026 32.7572H32.4177V32.2938C32.4177 32.2166 32.356 32.1703 32.2942 32.1703H30.6261C30.5489 32.1703 30.5026 32.232 30.5026 32.2938V32.7572Z" fill="#0E842C"/>
<path d="M30.8428 27.2124H32.0784V31.8614H30.8428V27.2124Z" fill="#F3F3F3"/>
<path d="M32.0787 32.1703H30.8431C30.6732 32.1703 30.5342 32.0312 30.5342 31.8614V27.2124C30.5342 27.0425 30.6732 26.9035 30.8431 26.9035H32.0787C32.2486 26.9035 32.3876 27.0425 32.3876 27.2124V31.8614C32.3876 32.0312 32.2486 32.1703 32.0787 32.1703ZM31.152 31.5525H31.7698V27.5213H31.152V31.5525Z" fill="#0E842C"/>
<path d="M18.0692 33.0661H33.8694C34.1165 33.0661 34.3018 33.2668 34.3018 33.4985V34.7032C34.3018 34.9503 34.101 35.1357 33.8694 35.1357H18.0692C17.8221 35.1357 17.6367 34.9349 17.6367 34.7032V33.4985C17.6367 33.2668 17.8221 33.0661 18.0692 33.0661Z" fill="#EDF2F8"/>
<path d="M33.8851 35.4446H18.0695C17.6525 35.4446 17.3281 35.1048 17.3281 34.7032V33.4985C17.3281 33.0815 17.6679 32.7572 18.0695 32.7572H33.8697C34.2867 32.7572 34.611 33.097 34.611 33.4985V34.7032C34.6265 35.1202 34.2867 35.4446 33.8851 35.4446ZM18.0695 33.375C17.9923 33.375 17.9459 33.4367 17.9459 33.4985V34.7032C17.9459 34.7805 18.0077 34.8268 18.0695 34.8268H33.8697C33.9469 34.8268 33.9932 34.765 33.9932 34.7032V33.4985C33.9932 33.4213 33.9314 33.375 33.8697 33.375H18.0695Z" fill="#0E842C"/>
<path d="M16.7411 34.2708H35.2441C35.4912 34.2708 35.6766 34.4716 35.6766 34.7032V35.1048C35.6766 35.3519 35.4758 35.5373 35.2441 35.5373H16.7411C16.4939 35.5373 16.3086 35.3365 16.3086 35.1048V34.7032C16.3086 34.4716 16.5094 34.2708 16.7411 34.2708Z" fill="#EDF2F8"/>
<path d="M35.2598 35.8462H16.7414C16.3243 35.8462 16 35.5064 16 35.1048V34.7032C16 34.2862 16.3398 33.9619 16.7414 33.9619H35.2444C35.6614 33.9619 35.9858 34.3017 35.9858 34.7032V35.1048C36.0012 35.5218 35.6614 35.8462 35.2598 35.8462ZM16.7414 34.5797C16.6641 34.5797 16.6178 34.6414 16.6178 34.7032V35.1048C16.6178 35.182 16.6796 35.2284 16.7414 35.2284H35.2444C35.3216 35.2284 35.368 35.1666 35.368 35.1048V34.7032C35.368 34.626 35.3062 34.5797 35.2444 34.5797H16.7414Z" fill="#0E842C"/>
</g>
<defs>
<clipPath id="clip0_230_1129">
<rect width="20" height="20" fill="white" transform="translate(16 16)"/>
</clipPath>
</defs>
</svg>
