<svg width="52" height="52" viewBox="0 0 52 52" fill="none" xmlns="http://www.w3.org/2000/svg">
<path d="M1.86032 18.1565L26 0.618033L50.1397 18.1565L40.9191 46.5344H11.0809L1.86032 18.1565Z" stroke="#0E842C"/>
<g clip-path="url(#clip0_230_1248)">
<path d="M23.4447 22.651C25.2784 22.651 26.7702 21.1592 26.7702 19.3255C26.7703 17.4918 25.2784 16 23.4447 16C21.6109 16 20.1191 17.4918 20.1191 19.3255C20.1191 21.1593 21.611 22.651 23.4447 22.651Z" fill="#0E842C"/>
<path d="M31.2743 28.4786C29.2007 28.4786 27.5137 30.1657 27.5137 32.2393C27.5137 34.3129 29.2007 35.9999 31.2743 35.9999C33.3479 35.9999 35.035 34.3129 35.035 32.2393C35.035 30.1657 33.348 28.4786 31.2743 28.4786ZM33.5651 31.4582L31.1075 33.9157C30.9839 34.0393 30.822 34.1011 30.6599 34.1011C30.4979 34.1011 30.336 34.0393 30.2123 33.9157L28.9836 32.6869C28.7364 32.4397 28.7364 32.0389 28.9836 31.7917C29.2308 31.5446 29.6315 31.5446 29.8788 31.7917L30.6599 32.5729L32.6698 30.563C32.9171 30.3158 33.3178 30.3158 33.5651 30.563C33.8123 30.8102 33.8123 31.211 33.5651 31.4582Z" fill="#0E842C"/>
<path d="M29.9225 27.631V27.0442C29.9225 25.7787 29.1092 24.6566 27.9067 24.2626L27.9011 24.2608L26.1421 23.9696C25.9924 23.9235 25.8324 24.0028 25.7786 24.1504L23.7828 29.6265C23.6676 29.9424 23.2208 29.9424 23.1057 29.6265L21.1098 24.1504C21.0663 24.0312 20.9538 23.9564 20.8332 23.9564C20.8046 23.9564 18.9874 24.2604 18.9874 24.2604C17.7749 24.6644 16.9648 25.7884 16.9648 27.0594V31.6159C16.9648 32.2987 17.5184 32.8523 18.2012 32.8523H26.5113C26.4856 32.6513 26.4708 32.4471 26.4708 32.2393C26.4709 30.0601 27.9302 28.2164 29.9225 27.631Z" fill="#0E842C"/>
<path d="M24.1804 23.636C24.1025 23.5512 23.9886 23.5084 23.8735 23.5084H23.0143C22.8991 23.5084 22.7852 23.5511 22.7074 23.636C22.5868 23.7674 22.5693 23.9572 22.6549 24.1055L23.1142 24.7979L22.8991 26.6116L23.3225 27.7379C23.3638 27.8512 23.524 27.8512 23.5653 27.7379L23.9886 26.6116L23.7736 24.7979L24.2329 24.1055C24.3185 23.9572 24.301 23.7674 24.1804 23.636Z" fill="#0E842C"/>
</g>
<defs>
<clipPath id="clip0_230_1248">
<rect width="20" height="20" fill="white" transform="translate(16 16)"/>
</clipPath>
</defs>
</svg>
