<svg width="298" height="116" viewBox="0 0 298 116" fill="none" xmlns="http://www.w3.org/2000/svg">
<rect width="298" height="116" rx="4" fill="#EBEEF3"/>
<path d="M105.509 32.242V52H97.3687V32.242H89.3767V25.582H113.501V32.242H105.509ZM119.841 47.042L118.398 52H109.888L118.916 25.582H130.016L139.044 52H130.386L128.906 47.042H119.841ZM124.392 32.131H124.244L121.506 41.492H127.204L124.392 32.131ZM154.557 25.582C157.295 25.582 159.441 26.2233 160.995 27.506C162.574 28.7887 163.363 30.4907 163.363 32.612C163.363 34.9307 162.216 36.682 159.922 37.866V38.014C161.205 38.5813 162.241 39.3707 163.03 40.382C163.819 41.3687 164.214 42.5773 164.214 44.008C164.214 46.5487 163.412 48.522 161.809 49.928C160.23 51.3093 158.023 52 155.186 52H139.868V25.582H154.557ZM152.633 36.053C153.496 36.053 154.162 35.8433 154.631 35.424C155.1 35.0047 155.334 34.4373 155.334 33.722C155.334 33.0067 155.1 32.4393 154.631 32.02C154.162 31.6007 153.496 31.391 152.633 31.391H148.008V36.053H152.633ZM153.114 46.043C154.027 46.043 154.717 45.8333 155.186 45.414C155.679 44.97 155.926 44.3657 155.926 43.601C155.926 42.8363 155.679 42.2443 155.186 41.825C154.717 41.381 154.027 41.159 153.114 41.159H148.008V46.043H153.114ZM165.559 25.582H173.736V45.34H186.686V52H165.559V25.582ZM208.124 35.609V41.455H196.21V45.71H208.864V52H188.033V25.582H208.864V31.687H196.21V35.609H208.124ZM97.5775 71.242V91H89.4375V71.242H81.4455V64.582H105.57V71.242H97.5775ZM126.988 74.609V80.455H115.074V84.71H127.728V91H106.897V64.582H127.728V70.687H115.074V74.609H126.988ZM145.208 91L136.92 75.09H136.772V91H129.372V64.582H138.733L146.873 80.085H147.021V64.582H154.421V91H145.208ZM172.163 91L163.875 75.09H163.727V91H156.327V64.582H165.688L173.828 80.085H173.976V64.582H181.376V91H172.163ZM183.282 64.582H191.422V91H183.282V64.582ZM208.237 72.759C208.163 71.8217 207.805 71.0817 207.164 70.539C206.522 69.9963 205.585 69.725 204.352 69.725C203.414 69.725 202.65 69.91 202.058 70.28C201.466 70.65 201.17 71.1187 201.17 71.686C201.17 72.204 201.392 72.5987 201.836 72.87C202.304 73.1167 203.007 73.3633 203.945 73.61L207.978 74.646C209.902 75.1393 211.443 75.645 212.603 76.163C213.787 76.6563 214.798 77.4703 215.637 78.605C216.475 79.7397 216.895 81.2937 216.895 83.267C216.895 86.079 215.785 88.1757 213.565 89.557C211.345 90.9137 208.496 91.592 205.018 91.592C202.798 91.592 200.763 91.259 198.913 90.593C197.087 89.9023 195.595 88.891 194.436 87.559C193.301 86.227 192.66 84.6237 192.512 82.749L200.541 81.935C200.615 83.1683 201.059 84.1057 201.873 84.747C202.711 85.3883 203.784 85.709 205.092 85.709C206.103 85.709 206.942 85.524 207.608 85.154C208.274 84.784 208.607 84.266 208.607 83.6C208.607 82.9587 208.348 82.4777 207.83 82.157C207.336 81.8363 206.411 81.491 205.055 81.121L201.651 80.196C199.825 79.7027 198.358 79.2217 197.248 78.753C196.162 78.2597 195.225 77.5073 194.436 76.496C193.646 75.46 193.252 74.054 193.252 72.278C193.252 69.5647 194.312 67.505 196.434 66.099C198.555 64.693 201.318 63.99 204.722 63.99C207.805 63.99 210.358 64.7053 212.381 66.136C214.428 67.5667 215.624 69.614 215.97 72.278L208.237 72.759Z" fill="url(#paint0_linear_7_3326)"/>
<defs>
<linearGradient id="paint0_linear_7_3326" x1="149.276" y1="18" x2="149.276" y2="96" gradientUnits="userSpaceOnUse">
<stop stop-color="#262626"/>
<stop offset="1" stop-color="#B8C2CE"/>
</linearGradient>
</defs>
</svg>
