<svg xmlns="http://www.w3.org/2000/svg" width="18" height="18" viewBox="0 0 18 18" fill="none">
  <g clip-path="url(#clip0_12_8075)">
    <path d="M15.7949 5.62239C15.8056 5.772 15.8056 5.92163 15.8056 6.07124C15.8056 10.6344 12.3325 15.8922 5.98464 15.8922C4.02898 15.8922 2.21227 15.3258 0.684082 14.3427C0.961944 14.3747 1.22908 14.3854 1.51763 14.3854C3.13129 14.3854 4.61675 13.8404 5.80296 12.9107C4.28546 12.8786 3.01375 11.8848 2.5756 10.5169C2.78935 10.5489 3.00306 10.5703 3.2275 10.5703C3.5374 10.5703 3.84734 10.5275 4.13586 10.4528C2.55425 10.1321 1.368 8.74289 1.368 7.06509V7.02236C1.8275 7.27884 2.36188 7.43914 2.92823 7.46048C1.99849 6.84065 1.38938 5.78269 1.38938 4.58578C1.38938 3.9446 1.56033 3.35683 1.85958 2.84387C3.55875 4.93844 6.11287 6.30631 8.97685 6.45594C8.92342 6.19946 8.89135 5.93233 8.89135 5.66516C8.89135 3.76292 10.4302 2.21338 12.3431 2.21338C13.337 2.21338 14.2346 2.63016 14.8652 3.30341C15.6453 3.15381 16.3933 2.86525 17.0559 2.46986C16.7994 3.27137 16.2544 3.94463 15.5384 4.37206C16.2331 4.29729 16.9063 4.10489 17.5261 3.83775C17.056 4.52167 16.4682 5.13078 15.7949 5.62239Z" fill="white"/>
  </g>
  <defs>
    <clipPath id="clip0_12_8075">
      <rect width="16.8421" height="16.8421" fill="white" transform="translate(0.683594 0.631836)"/>
    </clipPath>
  </defs>
</svg>