<svg width="52" height="52" viewBox="0 0 52 52" fill="none" xmlns="http://www.w3.org/2000/svg">
<path d="M1.86032 18.1565L26 0.618033L50.1397 18.1565L40.9191 46.5344H11.0809L1.86032 18.1565Z" stroke="#0E842C"/>
<g clip-path="url(#clip0_230_1184)">
<path d="M19.7978 33.8188C19.0827 33.8188 18.501 34.4006 18.501 35.1156C18.501 35.8307 19.0827 36.4124 19.7978 36.4124C20.5128 36.4124 21.0945 35.8307 21.0945 35.1156C21.0945 34.4006 20.5128 33.8188 19.7978 33.8188ZM19.7978 35.5819C19.5406 35.5819 19.3315 35.3727 19.3315 35.1156C19.3315 34.8584 19.5406 34.6492 19.7978 34.6492C20.0549 34.6492 20.264 34.8584 20.264 35.1156C20.264 35.3727 20.0549 35.5819 19.7978 35.5819Z" fill="#0E842C"/>
<path d="M29.1884 33.8188C28.4733 33.8188 27.8916 34.4006 27.8916 35.1156C27.8916 35.8307 28.4733 36.4124 29.1884 36.4124C29.9034 36.4124 30.4852 35.8307 30.4852 35.1156C30.4852 34.4006 29.9034 33.8188 29.1884 33.8188ZM29.1884 35.5819C28.9313 35.5819 28.7221 35.3727 28.7221 35.1156C28.7221 34.8584 28.9313 34.6492 29.1884 34.6492C29.4455 34.6492 29.6547 34.8584 29.6547 35.1156C29.6547 35.3727 29.4455 35.5819 29.1884 35.5819Z" fill="#0E842C"/>
<path d="M35.2472 24.9349H34.245C34.1349 24.9349 34.0293 24.9786 33.9514 25.0565L32.667 26.3408H31.5102V20.1968H32.8389C32.9805 20.1968 33.1123 20.1247 33.1887 20.0054C33.265 19.8862 33.2753 19.7362 33.216 19.6076L31.6447 16.2015C31.5768 16.0544 31.4296 15.9602 31.2676 15.9602H30.0569V14.1447C30.0569 13.9154 29.871 13.7295 29.6417 13.7295H19.3442C19.1148 13.7295 18.9289 13.9154 18.9289 14.1447V15.9602H17.718C17.556 15.9602 17.4088 16.0544 17.3409 16.2015L15.7696 19.6077C15.7103 19.7362 15.7206 19.8862 15.7969 20.0055C15.8733 20.1247 16.0051 20.1969 16.1467 20.1969H17.4756V26.3408H16.1467C15.9174 26.3408 15.7315 26.5267 15.7315 26.7561V34.5737C15.7315 34.8031 15.9174 34.989 16.1467 34.989H17.1867C17.1847 35.031 17.1834 35.0732 17.1834 35.1156C17.1834 36.5569 18.356 37.7295 19.7973 37.7295C21.2387 37.7295 22.4112 36.5569 22.4112 35.1156C22.4112 35.0732 22.41 35.031 22.408 34.989H26.5778C26.5758 35.031 26.5746 35.0732 26.5746 35.1156C26.5746 36.5569 27.7472 37.7295 29.1885 37.7295C30.6298 37.7295 31.8024 36.5569 31.8024 35.1156C31.8024 35.0732 31.8011 35.031 31.7992 34.989H32.8389C33.0682 34.989 33.2542 34.8031 33.2542 34.5737V26.9282L34.417 25.7654H35.2472C35.4765 25.7654 35.6624 25.5795 35.6624 25.3501C35.6624 25.1207 35.4766 24.9349 35.2472 24.9349ZM19.7594 14.56H29.2264V16.3733C29.2264 16.374 29.2263 16.3748 29.2263 16.3755C29.2263 16.3762 29.2264 16.3769 29.2264 16.3776V17.0513H19.7594V14.56ZM17.9838 16.7907H18.929V17.4665C18.929 17.6959 19.1149 17.8818 19.3442 17.8818H29.6417C29.871 17.8818 30.057 17.6959 30.057 17.4665V16.7907H31.0019L32.1901 19.3664H16.7955L17.9838 16.7907ZM28.9111 22.0664C28.9111 22.2241 28.7828 22.3524 28.625 22.3524C28.4673 22.3524 28.3389 22.2241 28.3389 22.0664C28.3389 21.9086 28.4673 21.7803 28.625 21.7803C28.7828 21.7803 28.9111 21.9086 28.9111 22.0664ZM18.3061 20.1969H28.2098V21.0308C27.7994 21.196 27.5085 21.5975 27.5085 22.0664C27.5085 22.682 28.0094 23.1829 28.6251 23.1829C29.2407 23.1829 29.7416 22.682 29.7416 22.0664C29.7416 21.5975 29.4508 21.196 29.0403 21.0308V20.1969H30.6798V26.3408H23.65V24.2257C23.65 23.7672 23.3672 23.3738 22.9671 23.2097V22.8784C22.9671 22.649 22.7812 22.4632 22.5519 22.4632C22.3226 22.4632 22.1366 22.649 22.1366 22.8784V23.2097C21.7366 23.3738 21.4538 23.7672 21.4538 24.2257V26.3408H21.0676V24.2257C21.0676 23.7672 20.7849 23.3738 20.3848 23.2097V22.8784C20.3848 22.649 20.1989 22.4632 19.9696 22.4632C19.7402 22.4632 19.5543 22.649 19.5543 22.8784V23.2097C19.1542 23.3738 18.8715 23.7672 18.8715 24.2257V26.3408H18.3061V20.1969ZM22.2843 24.2256C22.2843 24.0781 22.4043 23.958 22.5519 23.958C22.6994 23.958 22.8195 24.0781 22.8195 24.2256V26.3408H22.2842V24.2256H22.2843ZM19.7019 24.2256C19.7019 24.0781 19.822 23.958 19.9695 23.958C20.1171 23.958 20.2371 24.0781 20.2371 24.2256V26.3408H19.7019L19.7019 24.2256ZM32.4237 27.1713V27.764H16.562V27.1713H32.4237ZM19.7973 36.899C18.814 36.899 18.0139 36.0989 18.0139 35.1156C18.0139 34.1322 18.814 33.3322 19.7973 33.3322C20.7807 33.3322 21.5807 34.1322 21.5807 35.1156C21.5807 36.0989 20.7807 36.899 19.7973 36.899ZM29.1885 36.899C28.2052 36.899 27.4051 36.0989 27.4051 35.1156C27.4051 34.1322 28.2052 33.3322 29.1885 33.3322C30.1719 33.3322 30.9719 34.1322 30.9719 35.1156C30.9719 36.0989 30.1719 36.899 29.1885 36.899ZM31.6202 34.1584C31.2374 33.1894 30.2921 32.5017 29.1886 32.5017C28.0851 32.5017 27.1398 33.1894 26.757 34.1584H22.229C21.8462 33.1894 20.9009 32.5017 19.7974 32.5017C18.6939 32.5017 17.7486 33.1894 17.3658 34.1584H16.562V28.5945H32.4237V34.1584H31.6202Z" fill="#0E842C"/>
<path d="M28.1381 29.5265H27.374C27.1254 29.3084 26.8001 29.1758 26.4442 29.1758H22.5411C22.1852 29.1758 21.8599 29.3084 21.6113 29.5265H20.8469C20.5635 29.5265 20.2972 29.6368 20.0971 29.8369C19.8966 30.0374 19.7861 30.304 19.7861 30.5873C19.7861 31.1726 20.262 31.6487 20.8469 31.6487H21.6114C21.86 31.8667 22.1852 31.9993 22.5411 31.9993H26.4442C26.8 31.9993 27.1253 31.8667 27.3739 31.6487H28.1381C28.4224 31.6487 28.6892 31.538 28.8878 31.3384C29.0888 31.1384 29.1994 30.8716 29.1994 30.5874C29.1994 30.0024 28.7233 29.5265 28.1381 29.5265ZM20.6166 30.5873C20.6166 30.5258 20.6407 30.4679 20.6844 30.4242C20.7095 30.3991 20.7639 30.357 20.847 30.357H21.1485C21.1361 30.4321 21.1294 30.509 21.1294 30.5876C21.1294 30.6661 21.1361 30.7431 21.1485 30.8182H20.847C20.7199 30.8182 20.6166 30.7146 20.6166 30.5873ZM22.5411 31.1688C22.2206 31.1688 21.9598 30.9081 21.9598 30.5876C21.9598 30.267 22.2206 30.0063 22.5411 30.0063H26.4442C26.7647 30.0063 27.0255 30.267 27.0255 30.5876C27.0255 30.9081 26.7647 31.1688 26.4442 31.1688H22.5411ZM28.3005 30.7512C28.2575 30.7944 28.1998 30.8182 28.1381 30.8182H27.8368C27.8492 30.7431 27.856 30.6661 27.856 30.5876C27.856 30.509 27.8492 30.4321 27.8368 30.357H28.1381C28.2654 30.357 28.369 30.4603 28.369 30.5873C28.369 30.6491 28.3451 30.7068 28.3005 30.7512Z" fill="#0E842C"/>
</g>
<defs>
<clipPath id="clip0_230_1184">
<rect width="24" height="24" fill="white" transform="translate(13.6973 13.7295)"/>
</clipPath>
</defs>
</svg>
