<svg xmlns="http://www.w3.org/2000/svg" width="18" height="18" viewBox="0 0 18 18" fill="none">
  <path d="M14.3694 3.82602C12.9912 2.44444 11.1556 1.68457 9.20498 1.68457C5.17866 1.68457 1.90234 4.96089 1.90234 8.9872C1.90234 10.2734 2.23787 11.53 2.87603 12.6385L1.83984 16.4214L5.71155 15.405C6.77734 15.9872 7.978 16.2931 9.20169 16.2931H9.20498C13.228 16.2931 16.5767 13.0168 16.5767 8.99049C16.5767 7.03983 15.7477 5.2076 14.3694 3.82602ZM9.20498 15.0629C8.11287 15.0629 7.04379 14.7701 6.11287 14.2175L5.89248 14.0859L3.59642 14.6879L4.20826 12.4477L4.06353 12.2175C3.45498 11.2504 3.1359 10.1352 3.1359 8.9872C3.1359 5.64181 5.85958 2.91812 9.20827 2.91812C10.83 2.91812 12.353 3.5497 13.4977 4.69773C14.6425 5.84575 15.3464 7.36878 15.3431 8.99049C15.3431 12.3392 12.5504 15.0629 9.20498 15.0629ZM12.5339 10.5168C12.353 10.4247 11.455 9.98391 11.2872 9.9247C11.1194 9.8622 10.9977 9.8326 10.876 10.0168C10.7543 10.201 10.4056 10.6089 10.2971 10.7339C10.1918 10.8556 10.0833 10.8721 9.90234 10.78C8.82998 10.2438 8.12603 9.82273 7.41879 8.60891C7.23129 8.28654 7.60629 8.30957 7.95498 7.6122C8.01419 7.49049 7.98458 7.38523 7.93853 7.29312C7.89248 7.20102 7.52734 6.30299 7.37603 5.93786C7.228 5.5826 7.07669 5.63194 6.96484 5.62536C6.85958 5.61878 6.73787 5.61878 6.61616 5.61878C6.49445 5.61878 6.29708 5.66483 6.12932 5.84575C5.96155 6.02997 5.49116 6.47075 5.49116 7.36878C5.49116 8.26681 6.14577 9.13523 6.23458 9.25694C6.32669 9.37865 7.52076 11.2208 9.353 12.0135C10.5109 12.5135 10.9648 12.5563 11.5438 12.4708C11.8958 12.4181 12.6227 12.03 12.7741 11.6023C12.9254 11.1747 12.9254 10.8096 12.8793 10.7339C12.8366 10.6517 12.7148 10.6056 12.5339 10.5168Z" fill="white"/>
</svg>